<?xml version="1.0" encoding="utf-8" standalone="no"?><svg xmlns="http://www.w3.org/2000/svg" xmlns:xlink="http://www.w3.org/1999/xlink" width="52.6288mm" height="36.626799999999996mm" viewBox="4004 2993 207.2 144.2"><title>Photo View</title><style type="text/css">
path, polyline, polygon {stroke-linejoin:round;}
path, polyline, polygon, line {stroke-linecap:round;}
rect, circle, ellipse, polyline, polygon, line, path {shape-rendering:crispEdges;}
*[layerid="0"] {stroke:#FFFFFF; FILL:#FFFFFF;}*[layerid="1"] {stroke:#00BE00; fill:#00BE00;}*[layerid="2"] {stroke:#00BE00; fill:#00BE00;}*[layerid="3"] {stroke:#FFFFFF; fill:#FFFFFF;}*[layerid="4"] {stroke:#FFFFFF; fill:#FFFFFF;}*[layerid="5"] {stroke:#808080; fill:#808080;}*[layerid="6"] {stroke:#800000; fill:#800000;}*[layerid="7"] {stroke:#DCAA14; fill:#DCAA14;}*[layerid="8"] {stroke:#DCAA14; fill:#DCAA14;}*[layerid="9"] {display:none}*[layerid="10"] {stroke:#0B3B0B; fill:#0B3B0B;}*[layerid="11"] {stroke:#C0C0C0; fill:#C0C0C0;}*[layerid="12"] {stroke:#FFFFFF; fill:#FFFFFF;}*[layerid="13"] {stroke:#33CC99; fill:#33CC99;}*[layerid="14"] {stroke:#5555FF; fill:#5555FF;}*[layerid="15"] {stroke:#F022F0; fill:#F022F0;}*[layerid="16"] {stroke:#FFFFFF; FILL:#FFFFFF;}*[layerid="17"] {stroke:#FFFFFF; FILL:#FFFFFF;}*[layerid="18"] {stroke:#FFFFFF; FILL:#FFFFFF;}*[layerid="19"] {stroke:#FFFFFF; FILL:#FFFFFF;}*[layerid="20"] {stroke:#FFFFFF; FILL:#FFFFFF;}*[layerid="21"] {stroke:#800000; fill:#800000;}*[layerid="22"] {stroke:#008000; fill:#008000;}*[layerid="23"] {stroke:#00FF00; fill:#00FF00;}*[layerid="24"] {stroke:#BC8E00; fill:#BC8E00;}*[fill="none"] {fill: none;}
*[stroke="none"] {stroke: none;}
g[c_partid="part_pad"] > * + circle {fill: #111111;}
g[c_partid="part_via"] > * + circle {fill: #111111;}
g[c_partid="part_pad"] > polyline:nth-of-type(2) {stroke: #111111;}g[c_partid="part_pad"][c_shape="ELLIPSE"]  polyline:nth-last-of-type(1) {stroke:#111111;}g[c_partid="part_pad"][c_shape="RECT"]  polyline:nth-last-of-type(1) {stroke:#111111;}g[c_partid="part_pad"][c_shape="POLYGON"]  polyline:nth-last-of-type(1) {stroke:#111111;}g[c_partid="part_pad"] > polygon[c_padid], #gCurParts g[c_partid="part_pad"] > polygon[c_padid] {stroke-linejoin: miter;stroke-miterlimit: 100;}</style>
<rect x="4004" y="2993" width="207.2" height="144.2" fill="#111111" stroke="none"/><g style="pointer-events: none;"><path d="M4050,3127 4050,3050 4201,3050 4201,3127z" layerid="10" stroke="none"/><g c_partid="part_via" c_etype="pinpart" c_shapetype="group" c_origin="4118,3106" layerid="1"><circle cx="4118" cy="3106" r="1.22" stroke-width="0"/><circle cx="4118" cy="3106" r="0.6" stroke-width="0"/></g><g c_partid="part_via" c_etype="pinpart" c_shapetype="group" c_origin="4150,3096" layerid="1"><circle cx="4150" cy="3096" r="1.22" stroke-width="0"/><circle cx="4150" cy="3096" r="0.6" stroke-width="0"/></g><g c_partid="part_via" c_etype="pinpart" c_shapetype="group" c_origin="4171,3095" layerid="1"><circle cx="4171" cy="3095" r="1.22" stroke-width="0"/><circle cx="4171" cy="3095" r="0.6" stroke-width="0"/></g><g c_partid="part_via" c_etype="pinpart" c_shapetype="group" c_origin="4187,3122" layerid="1"><circle cx="4187" cy="3122" r="1.22" stroke-width="0"/><circle cx="4187" cy="3122" r="0.6" stroke-width="0"/></g><g c_partid="part_via" c_etype="pinpart" c_shapetype="group" c_origin="4187,3055" layerid="1"><circle cx="4187" cy="3055" r="1.22" stroke-width="0"/><circle cx="4187" cy="3055" r="0.6" stroke-width="0"/></g><rect x="4176" y="3050" width="25" height="10" stroke-width="0" fill="" transform="" layerid="1" locked="0" c_shapetype="line"/><rect x="4177" y="3117" width="24" height="10" stroke-width="0" fill="" transform="" layerid="1" locked="0" c_shapetype="line"/><polyline points="4063 3063 4063 3071 4058 3076 4058 3087.4 4058.9 3088.3" stroke-width="2" c_shapetype="line" stroke-linecap="round" fill="none" layerid="1" locked="0"/><polyline points="4059.1 3110.7 4059.1 3088.5 4058.9 3088.3" stroke-width="2" c_shapetype="line" stroke-linecap="round" fill="none" layerid="1" locked="0"/><polyline points="4068.9 3088.3 4068.9 3075.1 4081 3063 4090 3063 4092 3061" stroke-width="2" c_shapetype="line" stroke-linecap="round" fill="none" layerid="1" locked="0"/><polyline points="4069.1 3110.7 4069.1 3102.9 4078 3094 4092 3094" stroke-width="2" c_shapetype="line" stroke-linecap="round" fill="none" layerid="1" locked="0"/><polyline points="4092 3061 4114 3061 4115 3060" stroke-width="2" c_shapetype="line" stroke-linecap="round" fill="none" layerid="1" locked="0"/><polyline points="4139 3060 4149 3060 4151 3062 4151 3080 4155 3084 4161 3084" stroke-width="2" c_shapetype="line" stroke-linecap="round" fill="none" layerid="1" locked="0"/><polyline points="4161 3100.09 4161 3084" stroke-width="2" c_shapetype="line" stroke-linecap="round" fill="none" layerid="1" locked="0"/><polyline points="4161 3100.09 4130.91 3100.09 4115 3116" stroke-width="2" c_shapetype="line" stroke-linecap="round" fill="none" layerid="1" locked="0"/><polyline points="4187 3081 4163.91 3081 4161 3078.09" stroke-width="2" c_shapetype="line" stroke-linecap="round" fill="none" layerid="1" locked="0"/><polyline points="4187 3100 4176 3100 4170 3106 4161 3106" stroke-width="2" c_shapetype="line" stroke-linecap="round" fill="none" layerid="1" locked="0"/><polyline points="4118 3106 4128 3096 4150 3096" stroke-width="2" c_shapetype="line" stroke-linecap="round" fill="none" layerid="1" locked="0"/><polyline points="4161 3090.8414 4166.8414 3090.8414 4171 3095" stroke-width="2" c_shapetype="line" stroke-linecap="round" fill="none" layerid="1" locked="0"/><g c_partid="part_pcbtext" c_origin="4189,3067.27" c_rotation="0" c_mirror="" locked="0" layerid="1" c_shapetype="group"><path c_fontSize="8" c_fontFamily="" c_text="+" d="M 4192.27 3064 L 4192.27 3070.54 M 4189 3067.27 L 4195.55 3067.27" fill="none" stroke-width="0.8"/></g><g c_partid="part_pcbtext" c_origin="4189,3112" c_rotation="0" c_mirror="" locked="0" layerid="1" c_shapetype="group"><path c_fontSize="8" c_fontFamily="" c_text="-" d="M 4189 3112L4195.55 3112 " fill="none" stroke-width="0.8"/></g><g c_partid="part_pcbtext" c_origin="4063,3078" c_rotation="0" c_mirror="" locked="0" layerid="3" c_shapetype="group"><path c_fontSize="4.5" c_fontFamily="" c_text="C1" d="M 4066.07 3076.57 L 4065.86 3076.16 L 4065.45 3075.75 L 4065.05 3075.55 L 4064.23 3075.55 L 4063.82 3075.75 L 4063.41 3076.16 L 4063.2 3076.57 L 4063 3077.18 L 4063 3078.2 L 4063.2 3078.82 L 4063.41 3079.23 L 4063.82 3079.64 L 4064.23 3079.84 L 4065.05 3079.84 L 4065.45 3079.64 L 4065.86 3079.23 L 4066.07 3078.82 M 4067.42 3076.36 L 4067.83 3076.16 L 4068.44 3075.55 L 4068.44 3079.84" fill="none" stroke-width="0.7" c_note="note_pre"/></g><g c_partid="part_pcbtext" c_origin="4063,3070" c_rotation="0" c_mirror="" locked="0" layerid="3" c_shapetype="group" display="none"><path c_fontSize="4.5" c_fontFamily="" c_text="0.22u" d="M 4064.23 3067.55 L 4063.61 3067.75 L 4063.2 3068.36 L 4063 3069.39 L 4063 3070 L 4063.2 3071.02 L 4063.61 3071.64 L 4064.23 3071.84 L 4064.64 3071.84 L 4065.25 3071.64 L 4065.66 3071.02 L 4065.86 3070 L 4065.86 3069.39 L 4065.66 3068.36 L 4065.25 3067.75 L 4064.64 3067.55 L 4064.23 3067.55 M 4067.42 3070.82 L 4067.21 3071.02 L 4067.42 3071.23 L 4067.62 3071.02 L 4067.42 3070.82 M 4069.18 3068.57 L 4069.18 3068.36 L 4069.38 3067.95 L 4069.59 3067.75 L 4070 3067.55 L 4070.81 3067.55 L 4071.22 3067.75 L 4071.43 3067.95 L 4071.63 3068.36 L 4071.63 3068.77 L 4071.43 3069.18 L 4071.02 3069.8 L 4068.97 3071.84 L 4071.84 3071.84 M 4073.39 3068.57 L 4073.39 3068.36 L 4073.6 3067.95 L 4073.8 3067.75 L 4074.21 3067.55 L 4075.03 3067.55 L 4075.44 3067.75 L 4075.64 3067.95 L 4075.85 3068.36 L 4075.85 3068.77 L 4075.64 3069.18 L 4075.23 3069.8 L 4073.19 3071.84 L 4076.05 3071.84 M 4077.4 3068.98 L 4077.4 3071.02 L 4077.6 3071.64 L 4078.01 3071.84 L 4078.63 3071.84 L 4079.04 3071.64 L 4079.65 3071.02 M 4079.65 3068.98 L 4079.65 3071.84" fill="none" stroke-width="0.5" c_note="note_name"/></g><g c_partid="part_pcbtext" c_origin="4065,3121" c_rotation="0" c_mirror="" locked="0" layerid="3" c_shapetype="group"><path c_fontSize="4.5" c_fontFamily="" c_text="C2" d="M 4068.07 3119.57 L 4067.86 3119.16 L 4067.45 3118.75 L 4067.05 3118.55 L 4066.23 3118.55 L 4065.82 3118.75 L 4065.41 3119.16 L 4065.2 3119.57 L 4065 3120.18 L 4065 3121.2 L 4065.2 3121.82 L 4065.41 3122.23 L 4065.82 3122.64 L 4066.23 3122.84 L 4067.05 3122.84 L 4067.45 3122.64 L 4067.86 3122.23 L 4068.07 3121.82 M 4069.62 3119.57 L 4069.62 3119.36 L 4069.83 3118.95 L 4070.03 3118.75 L 4070.44 3118.55 L 4071.26 3118.55 L 4071.67 3118.75 L 4071.87 3118.95 L 4072.08 3119.36 L 4072.08 3119.77 L 4071.87 3120.18 L 4071.46 3120.8 L 4069.42 3122.84 L 4072.28 3122.84" fill="none" stroke-width="0.7" c_note="note_pre"/></g><g c_partid="part_pcbtext" c_origin="4065,3129" c_rotation="180" c_mirror="" locked="0" layerid="3" c_shapetype="group" display="none"><path c_fontSize="4.5" c_fontFamily="" c_text="0.22u" d="M 4063.77 3131.45 L 4064.39 3131.25 L 4064.8 3130.64 L 4065 3129.61 L 4065 3129 L 4064.8 3127.98 L 4064.39 3127.36 L 4063.77 3127.16 L 4063.36 3127.16 L 4062.75 3127.36 L 4062.34 3127.98 L 4062.14 3129 L 4062.14 3129.61 L 4062.34 3130.64 L 4062.75 3131.25 L 4063.36 3131.45 L 4063.77 3131.45 M 4060.58 3128.18 L 4060.79 3127.98 L 4060.58 3127.77 L 4060.38 3127.98 L 4060.58 3128.18 M 4058.82 3130.43 L 4058.82 3130.64 L 4058.62 3131.05 L 4058.41 3131.25 L 4058 3131.45 L 4057.19 3131.45 L 4056.78 3131.25 L 4056.57 3131.05 L 4056.37 3130.64 L 4056.37 3130.23 L 4056.57 3129.82 L 4056.98 3129.2 L 4059.03 3127.16 L 4056.16 3127.16 M 4054.61 3130.43 L 4054.61 3130.64 L 4054.4 3131.05 L 4054.2 3131.25 L 4053.79 3131.45 L 4052.97 3131.45 L 4052.56 3131.25 L 4052.36 3131.05 L 4052.15 3130.64 L 4052.15 3130.23 L 4052.36 3129.82 L 4052.77 3129.2 L 4054.81 3127.16 L 4051.95 3127.16 M 4050.6 3130.02 L 4050.6 3127.98 L 4050.4 3127.36 L 4049.99 3127.16 L 4049.37 3127.16 L 4048.96 3127.36 L 4048.35 3127.98 M 4048.35 3130.02 L 4048.35 3127.16" fill="none" stroke-width="0.5" c_note="note_name"/></g><g c_partid="part_pcbtext" c_origin="4157,3066.45" c_rotation="0" c_mirror="" locked="0" layerid="3" c_shapetype="group"><path c_fontSize="4.5" c_fontFamily="" c_text="C3" d="M 4160.07 3065.02 L 4159.86 3064.61 L 4159.45 3064.2 L 4159.05 3064 L 4158.23 3064 L 4157.82 3064.2 L 4157.41 3064.61 L 4157.2 3065.02 L 4157 3065.63 L 4157 3066.65 L 4157.2 3067.27 L 4157.41 3067.68 L 4157.82 3068.09 L 4158.23 3068.29 L 4159.05 3068.29 L 4159.45 3068.09 L 4159.86 3067.68 L 4160.07 3067.27 M 4161.83 3064 L 4164.08 3064 L 4162.85 3065.63 L 4163.46 3065.63 L 4163.87 3065.84 L 4164.08 3066.04 L 4164.28 3066.65 L 4164.28 3067.06 L 4164.08 3067.68 L 4163.67 3068.09 L 4163.05 3068.29 L 4162.44 3068.29 L 4161.83 3068.09 L 4161.62 3067.88 L 4161.42 3067.47" fill="none" stroke-width="0.7" c_note="note_pre"/></g><g c_partid="part_pcbtext" c_origin="4161,3058" c_rotation="0" c_mirror="" locked="0" layerid="3" c_shapetype="group" display="none"><path c_fontSize="4.5" c_fontFamily="" c_text="100u" d="M 4161 3056.36 L 4161.41 3056.16 L 4162.02 3055.55 L 4162.02 3059.84 M 4164.6 3055.55 L 4163.99 3055.75 L 4163.58 3056.36 L 4163.37 3057.39 L 4163.37 3058 L 4163.58 3059.02 L 4163.99 3059.64 L 4164.6 3059.84 L 4165.01 3059.84 L 4165.62 3059.64 L 4166.03 3059.02 L 4166.24 3058 L 4166.24 3057.39 L 4166.03 3056.36 L 4165.62 3055.75 L 4165.01 3055.55 L 4164.6 3055.55 M 4168.81 3055.55 L 4168.2 3055.75 L 4167.79 3056.36 L 4167.59 3057.39 L 4167.59 3058 L 4167.79 3059.02 L 4168.2 3059.64 L 4168.81 3059.84 L 4169.22 3059.84 L 4169.84 3059.64 L 4170.25 3059.02 L 4170.45 3058 L 4170.45 3057.39 L 4170.25 3056.36 L 4169.84 3055.75 L 4169.22 3055.55 L 4168.81 3055.55 M 4171.8 3056.98 L 4171.8 3059.02 L 4172 3059.64 L 4172.41 3059.84 L 4173.03 3059.84 L 4173.44 3059.64 L 4174.05 3059.02 M 4174.05 3056.98 L 4174.05 3059.84" fill="none" stroke-width="0.5" c_note="note_name"/></g><g c_partid="part_pcbtext" c_origin="4157,3114.45" c_rotation="0" c_mirror="" locked="0" layerid="3" c_shapetype="group"><path c_fontSize="4.5" c_fontFamily="" c_text="C4" d="M 4160.07 3113.02 L 4159.86 3112.61 L 4159.45 3112.2 L 4159.05 3112 L 4158.23 3112 L 4157.82 3112.2 L 4157.41 3112.61 L 4157.2 3113.02 L 4157 3113.63 L 4157 3114.65 L 4157.2 3115.27 L 4157.41 3115.68 L 4157.82 3116.09 L 4158.23 3116.29 L 4159.05 3116.29 L 4159.45 3116.09 L 4159.86 3115.68 L 4160.07 3115.27 M 4163.46 3112 L 4161.42 3114.86 L 4164.49 3114.86 M 4163.46 3112 L 4163.46 3116.29" fill="none" stroke-width="0.7" c_note="note_pre"/></g><g c_partid="part_pcbtext" c_origin="4161,3080" c_rotation="0" c_mirror="" locked="0" layerid="3" c_shapetype="group" display="none"><path c_fontSize="4.5" c_fontFamily="" c_text="100u" d="M 4161 3078.36 L 4161.41 3078.16 L 4162.02 3077.55 L 4162.02 3081.84 M 4164.6 3077.55 L 4163.99 3077.75 L 4163.58 3078.36 L 4163.37 3079.39 L 4163.37 3080 L 4163.58 3081.02 L 4163.99 3081.64 L 4164.6 3081.84 L 4165.01 3081.84 L 4165.62 3081.64 L 4166.03 3081.02 L 4166.24 3080 L 4166.24 3079.39 L 4166.03 3078.36 L 4165.62 3077.75 L 4165.01 3077.55 L 4164.6 3077.55 M 4168.81 3077.55 L 4168.2 3077.75 L 4167.79 3078.36 L 4167.59 3079.39 L 4167.59 3080 L 4167.79 3081.02 L 4168.2 3081.64 L 4168.81 3081.84 L 4169.22 3081.84 L 4169.84 3081.64 L 4170.25 3081.02 L 4170.45 3080 L 4170.45 3079.39 L 4170.25 3078.36 L 4169.84 3077.75 L 4169.22 3077.55 L 4168.81 3077.55 M 4171.8 3078.98 L 4171.8 3081.02 L 4172 3081.64 L 4172.41 3081.84 L 4173.03 3081.84 L 4173.44 3081.64 L 4174.05 3081.02 M 4174.05 3078.98 L 4174.05 3081.84" fill="none" stroke-width="0.5" c_note="note_name"/></g><g c_partid="part_pcbtext" c_origin="4081.45,3074.24" c_rotation="90" c_mirror="" locked="0" layerid="3" c_shapetype="group"><path c_fontSize="4.5" c_fontFamily="" c_text="D1" d="M 4079.0002 3074.24 L 4083.2902 3074.24 M 4079.0002 3074.24 L 4079.0002 3072.81 L 4079.2002 3072.19 L 4079.6102 3071.79 L 4080.0202 3071.58 L 4080.6302 3071.38 L 4081.6502 3071.38 L 4082.2702 3071.58 L 4082.6802 3071.79 L 4083.0902 3072.19 L 4083.2902 3072.81 L 4083.2902 3074.24 M 4079.8102 3070.03 L 4079.6102 3069.62 L 4079.0002 3069 L 4083.2902 3069" fill="none" stroke-width="0.7" c_note="note_pre"/></g><g c_partid="part_pcbtext" c_origin="4113,3071" c_rotation="270" c_mirror="" locked="0" layerid="3" c_shapetype="group" display="none"><path c_fontSize="4.5" c_fontFamily="" c_text="1N4148W" d="M 4114.64 3071 L 4114.84 3071.41 L 4115.45 3072.02 L 4111.16 3072.02 M 4115.45 3073.37 L 4111.16 3073.37 M 4115.45 3073.37 L 4111.16 3076.24 M 4115.45 3076.24 L 4111.16 3076.24 M 4115.45 3079.63 L 4112.59 3077.59 L 4112.59 3080.65 M 4115.45 3079.63 L 4111.16 3079.63 M 4114.64 3082 L 4114.84 3082.41 L 4115.45 3083.03 L 4111.16 3083.03 M 4115.45 3086.42 L 4112.59 3084.38 L 4112.59 3087.45 M 4115.45 3086.42 L 4111.16 3086.42 M 4115.45 3089.82 L 4115.25 3089.2 L 4114.84 3089 L 4114.43 3089 L 4114.02 3089.2 L 4113.82 3089.61 L 4113.61 3090.43 L 4113.41 3091.05 L 4113 3091.45 L 4112.59 3091.66 L 4111.98 3091.66 L 4111.57 3091.45 L 4111.36 3091.25 L 4111.16 3090.64 L 4111.16 3089.82 L 4111.36 3089.2 L 4111.57 3089 L 4111.98 3088.8 L 4112.59 3088.8 L 4113 3089 L 4113.41 3089.41 L 4113.61 3090.02 L 4113.82 3090.84 L 4114.02 3091.25 L 4114.43 3091.45 L 4114.84 3091.45 L 4115.25 3091.25 L 4115.45 3090.64 L 4115.45 3089.82 M 4115.45 3093.01 L 4111.16 3094.03 M 4115.45 3095.05 L 4111.16 3094.03 M 4115.45 3095.05 L 4111.16 3096.08 M 4115.45 3097.1 L 4111.16 3096.08" fill="none" stroke-width="0.5" c_note="note_name"/></g><g c_partid="part_pcbtext" c_origin="4080.45,3106.08" c_rotation="90" c_mirror="" locked="0" layerid="3" c_shapetype="group"><path c_fontSize="4.5" c_fontFamily="" c_text="D2" d="M 4078 3106.0801 L 4082.29 3106.0801 M 4078 3106.0801 L 4078 3104.6501 L 4078.2 3104.0301 L 4078.61 3103.6301 L 4079.02 3103.4201 L 4079.63 3103.2201 L 4080.65 3103.2201 L 4081.27 3103.4201 L 4081.68 3103.6301 L 4082.09 3104.0301 L 4082.29 3104.6501 L 4082.29 3106.0801 M 4079.02 3101.6601 L 4078.81 3101.6601 L 4078.4 3101.4601 L 4078.2 3101.2501 L 4078 3100.8401 L 4078 3100.0301 L 4078.2 3099.6201 L 4078.4 3099.4101 L 4078.81 3099.2101 L 4079.22 3099.2101 L 4079.63 3099.4101 L 4080.25 3099.8201 L 4082.29 3101.8701 L 4082.29 3099.0001" fill="none" stroke-width="0.7" c_note="note_pre"/></g><g c_partid="part_pcbtext" c_origin="4071,3104" c_rotation="90" c_mirror="" locked="0" layerid="3" c_shapetype="group" display="none"><path c_fontSize="4.5" c_fontFamily="" c_text="1N4148W" d="M 4069.36 3104 L 4069.16 3103.59 L 4068.55 3102.98 L 4072.84 3102.98 M 4068.55 3101.63 L 4072.84 3101.63 M 4068.55 3101.63 L 4072.84 3098.76 M 4068.55 3098.76 L 4072.84 3098.76 M 4068.55 3095.37 L 4071.41 3097.41 L 4071.41 3094.35 M 4068.55 3095.37 L 4072.84 3095.37 M 4069.36 3093 L 4069.16 3092.59 L 4068.55 3091.97 L 4072.84 3091.97 M 4068.55 3088.58 L 4071.41 3090.62 L 4071.41 3087.55 M 4068.55 3088.58 L 4072.84 3088.58 M 4068.55 3085.18 L 4068.75 3085.8 L 4069.16 3086 L 4069.57 3086 L 4069.98 3085.8 L 4070.18 3085.39 L 4070.39 3084.57 L 4070.59 3083.95 L 4071 3083.55 L 4071.41 3083.34 L 4072.02 3083.34 L 4072.43 3083.55 L 4072.64 3083.75 L 4072.84 3084.36 L 4072.84 3085.18 L 4072.64 3085.8 L 4072.43 3086 L 4072.02 3086.2 L 4071.41 3086.2 L 4071 3086 L 4070.59 3085.59 L 4070.39 3084.98 L 4070.18 3084.16 L 4069.98 3083.75 L 4069.57 3083.55 L 4069.16 3083.55 L 4068.75 3083.75 L 4068.55 3084.36 L 4068.55 3085.18 M 4068.55 3081.99 L 4072.84 3080.97 M 4068.55 3079.95 L 4072.84 3080.97 M 4068.55 3079.95 L 4072.84 3078.92 M 4068.55 3077.9 L 4072.84 3078.92" fill="none" stroke-width="0.5" c_note="note_name"/></g><g c_partid="part_pcbtext" c_origin="4103.45,3091.08" c_rotation="90" c_mirror="" locked="0" layerid="3" c_shapetype="group"><path c_fontSize="4.5" c_fontFamily="" c_text="D3" d="M 4101.0002 3091.0801 L 4105.2902 3091.0801 M 4101.0002 3091.0801 L 4101.0002 3089.6501 L 4101.2002 3089.0301 L 4101.6102 3088.6301 L 4102.0202 3088.4201 L 4102.6302 3088.2201 L 4103.6502 3088.2201 L 4104.2702 3088.4201 L 4104.6802 3088.6301 L 4105.0902 3089.0301 L 4105.2902 3089.6501 L 4105.2902 3091.0801 M 4101.0002 3086.4601 L 4101.0002 3084.2101 L 4102.6302 3085.4301 L 4102.6302 3084.8201 L 4102.8402 3084.4101 L 4103.0402 3084.2101 L 4103.6502 3084.0001 L 4104.0602 3084.0001 L 4104.6802 3084.2101 L 4105.0902 3084.6201 L 4105.2902 3085.2301 L 4105.2902 3085.8401 L 4105.0902 3086.4601 L 4104.8802 3086.6601 L 4104.4702 3086.8701" fill="none" stroke-width="0.7" c_note="note_pre"/></g><g c_partid="part_pcbtext" c_origin="4094,3088" c_rotation="90" c_mirror="" locked="0" layerid="3" c_shapetype="group" display="none"><path c_fontSize="4.5" c_fontFamily="" c_text="1N34A" d="M 4092.36 3088 L 4092.16 3087.59 L 4091.55 3086.98 L 4095.84 3086.98 M 4091.55 3085.63 L 4095.84 3085.63 M 4091.55 3085.63 L 4095.84 3082.76 M 4091.55 3082.76 L 4095.84 3082.76 M 4091.55 3081 L 4091.55 3078.75 L 4093.18 3079.98 L 4093.18 3079.37 L 4093.39 3078.96 L 4093.59 3078.75 L 4094.2 3078.55 L 4094.61 3078.55 L 4095.23 3078.75 L 4095.64 3079.16 L 4095.84 3079.78 L 4095.84 3080.39 L 4095.64 3081 L 4095.43 3081.21 L 4095.02 3081.41 M 4091.55 3075.15 L 4094.41 3077.2 L 4094.41 3074.13 M 4091.55 3075.15 L 4095.84 3075.15 M 4091.55 3071.15 L 4095.84 3072.78 M 4091.55 3071.15 L 4095.84 3069.51 M 4094.41 3072.17 L 4094.41 3070.12" fill="none" stroke-width="0.5" c_note="note_name"/></g><g c_partid="part_pcbtext" c_origin="4127.45,3092.28" c_rotation="90" c_mirror="" locked="0" layerid="3" c_shapetype="group"><path c_fontSize="4.5" c_fontFamily="" c_text="D4" d="M 4125.0002 3092.28 L 4129.2902 3092.28 M 4125.0002 3092.28 L 4125.0002 3090.85 L 4125.2002 3090.23 L 4125.6102 3089.83 L 4126.0202 3089.62 L 4126.6302 3089.42 L 4127.6502 3089.42 L 4128.2702 3089.62 L 4128.6802 3089.83 L 4129.0902 3090.23 L 4129.2902 3090.85 L 4129.2902 3092.28 M 4125.0002 3086.02 L 4127.8602 3088.07 L 4127.8602 3085 M 4125.0002 3086.02 L 4129.2902 3086.02" fill="none" stroke-width="0.7" c_note="note_pre"/></g><g c_partid="part_pcbtext" c_origin="4118,3088" c_rotation="90" c_mirror="" locked="0" layerid="3" c_shapetype="group" display="none"><path c_fontSize="4.5" c_fontFamily="" c_text="OA70" d="M 4115.55 3086.77 L 4115.75 3087.18 L 4116.16 3087.59 L 4116.57 3087.8 L 4117.18 3088 L 4118.2 3088 L 4118.82 3087.8 L 4119.23 3087.59 L 4119.64 3087.18 L 4119.84 3086.77 L 4119.84 3085.95 L 4119.64 3085.55 L 4119.23 3085.14 L 4118.82 3084.93 L 4118.2 3084.73 L 4117.18 3084.73 L 4116.57 3084.93 L 4116.16 3085.14 L 4115.75 3085.55 L 4115.55 3085.95 L 4115.55 3086.77 M 4115.55 3081.74 L 4119.84 3083.38 M 4115.55 3081.74 L 4119.84 3080.1 M 4118.41 3082.76 L 4118.41 3080.72 M 4115.55 3075.89 L 4119.84 3077.94 M 4115.55 3078.75 L 4115.55 3075.89 M 4115.55 3073.31 L 4115.75 3073.93 L 4116.36 3074.34 L 4117.39 3074.54 L 4118 3074.54 L 4119.02 3074.34 L 4119.64 3073.93 L 4119.84 3073.31 L 4119.84 3072.9 L 4119.64 3072.29 L 4119.02 3071.88 L 4118 3071.68 L 4117.39 3071.68 L 4116.36 3071.88 L 4115.75 3072.29 L 4115.55 3072.9 L 4115.55 3073.31" fill="none" stroke-width="0.5" c_note="note_name"/></g><g c_partid="part_pcbtext" c_origin="4180,3067.45" c_rotation="0" c_mirror="" locked="0" layerid="3" c_shapetype="group"><path c_fontSize="4.5" c_fontFamily="" c_text="U1" d="M 4180 3065 L 4180 3068.06 L 4180.2 3068.68 L 4180.61 3069.09 L 4181.23 3069.29 L 4181.64 3069.29 L 4182.25 3069.09 L 4182.66 3068.68 L 4182.86 3068.06 L 4182.86 3065 M 4184.21 3065.81 L 4184.62 3065.61 L 4185.24 3065 L 4185.24 3069.29" fill="none" stroke-width="0.7" c_note="note_pre"/></g><g c_partid="part_pcbtext" c_origin="4187,3060" c_rotation="0" c_mirror="" locked="0" layerid="3" c_shapetype="group" display="none"><path c_fontSize="4.5" c_fontFamily="" c_text="WIREPAD LARGE" d="M 4187 3057.55 L 4188.02 3061.84 M 4189.05 3057.55 L 4188.02 3061.84 M 4189.05 3057.55 L 4190.07 3061.84 M 4191.09 3057.55 L 4190.07 3061.84 M 4192.44 3057.55 L 4192.44 3061.84 M 4193.79 3057.55 L 4193.79 3061.84 M 4193.79 3057.55 L 4195.63 3057.55 L 4196.25 3057.75 L 4196.45 3057.95 L 4196.65 3058.36 L 4196.65 3058.77 L 4196.45 3059.18 L 4196.25 3059.39 L 4195.63 3059.59 L 4193.79 3059.59 M 4195.22 3059.59 L 4196.65 3061.84 M 4198 3057.55 L 4198 3061.84 M 4198 3057.55 L 4200.66 3057.55 M 4198 3059.59 L 4199.64 3059.59 M 4198 3061.84 L 4200.66 3061.84 M 4202.01 3057.55 L 4202.01 3061.84 M 4202.01 3057.55 L 4203.85 3057.55 L 4204.47 3057.75 L 4204.67 3057.95 L 4204.88 3058.36 L 4204.88 3058.98 L 4204.67 3059.39 L 4204.47 3059.59 L 4203.85 3059.8 L 4202.01 3059.8 M 4207.86 3057.55 L 4206.23 3061.84 M 4207.86 3057.55 L 4209.5 3061.84 M 4206.84 3060.41 L 4208.89 3060.41 M 4210.85 3057.55 L 4210.85 3061.84 M 4210.85 3057.55 L 4212.28 3057.55 L 4212.9 3057.75 L 4213.3 3058.16 L 4213.51 3058.57 L 4213.71 3059.18 L 4213.71 3060.2 L 4213.51 3060.82 L 4213.3 3061.23 L 4212.9 3061.64 L 4212.28 3061.84 L 4210.85 3061.84 M 4218.21 3057.55 L 4218.21 3061.84 M 4218.21 3061.84 L 4220.67 3061.84 M 4223.65 3057.55 L 4222.02 3061.84 M 4223.65 3057.55 L 4225.29 3061.84 M 4222.63 3060.41 L 4224.68 3060.41 M 4226.64 3057.55 L 4226.64 3061.84 M 4226.64 3057.55 L 4228.48 3057.55 L 4229.1 3057.75 L 4229.3 3057.95 L 4229.5 3058.36 L 4229.5 3058.77 L 4229.3 3059.18 L 4229.1 3059.39 L 4228.48 3059.59 L 4226.64 3059.59 M 4228.07 3059.59 L 4229.5 3061.84 M 4233.92 3058.57 L 4233.72 3058.16 L 4233.31 3057.75 L 4232.9 3057.55 L 4232.08 3057.55 L 4231.67 3057.75 L 4231.26 3058.16 L 4231.06 3058.57 L 4230.85 3059.18 L 4230.85 3060.2 L 4231.06 3060.82 L 4231.26 3061.23 L 4231.67 3061.64 L 4232.08 3061.84 L 4232.9 3061.84 L 4233.31 3061.64 L 4233.72 3061.23 L 4233.92 3060.82 L 4233.92 3060.2 M 4232.9 3060.2 L 4233.92 3060.2 M 4235.27 3057.55 L 4235.27 3061.84 M 4235.27 3057.55 L 4237.93 3057.55 M 4235.27 3059.59 L 4236.91 3059.59 M 4235.27 3061.84 L 4237.93 3061.84" fill="none" stroke-width="0.5" c_note="note_name"/></g><g c_partid="part_pcbtext" c_origin="4180,3113.45" c_rotation="0" c_mirror="" locked="0" layerid="3" c_shapetype="group"><path c_fontSize="4.5" c_fontFamily="" c_text="U2" d="M 4180 3111 L 4180 3114.06 L 4180.2 3114.68 L 4180.61 3115.09 L 4181.23 3115.29 L 4181.64 3115.29 L 4182.25 3115.09 L 4182.66 3114.68 L 4182.86 3114.06 L 4182.86 3111 M 4184.42 3112.02 L 4184.42 3111.81 L 4184.62 3111.4 L 4184.83 3111.2 L 4185.24 3111 L 4186.05 3111 L 4186.46 3111.2 L 4186.67 3111.4 L 4186.87 3111.81 L 4186.87 3112.22 L 4186.67 3112.63 L 4186.26 3113.25 L 4184.21 3115.29 L 4187.08 3115.29" fill="none" stroke-width="0.7" c_note="note_pre"/></g><g c_partid="part_pcbtext" c_origin="4187,3079" c_rotation="0" c_mirror="" locked="0" layerid="3" c_shapetype="group" display="none"><path c_fontSize="4.5" c_fontFamily="" c_text="WIREPAD LARGE" d="M 4187 3076.55 L 4188.02 3080.84 M 4189.05 3076.55 L 4188.02 3080.84 M 4189.05 3076.55 L 4190.07 3080.84 M 4191.09 3076.55 L 4190.07 3080.84 M 4192.44 3076.55 L 4192.44 3080.84 M 4193.79 3076.55 L 4193.79 3080.84 M 4193.79 3076.55 L 4195.63 3076.55 L 4196.25 3076.75 L 4196.45 3076.95 L 4196.65 3077.36 L 4196.65 3077.77 L 4196.45 3078.18 L 4196.25 3078.39 L 4195.63 3078.59 L 4193.79 3078.59 M 4195.22 3078.59 L 4196.65 3080.84 M 4198 3076.55 L 4198 3080.84 M 4198 3076.55 L 4200.66 3076.55 M 4198 3078.59 L 4199.64 3078.59 M 4198 3080.84 L 4200.66 3080.84 M 4202.01 3076.55 L 4202.01 3080.84 M 4202.01 3076.55 L 4203.85 3076.55 L 4204.47 3076.75 L 4204.67 3076.95 L 4204.88 3077.36 L 4204.88 3077.98 L 4204.67 3078.39 L 4204.47 3078.59 L 4203.85 3078.8 L 4202.01 3078.8 M 4207.86 3076.55 L 4206.23 3080.84 M 4207.86 3076.55 L 4209.5 3080.84 M 4206.84 3079.41 L 4208.89 3079.41 M 4210.85 3076.55 L 4210.85 3080.84 M 4210.85 3076.55 L 4212.28 3076.55 L 4212.9 3076.75 L 4213.3 3077.16 L 4213.51 3077.57 L 4213.71 3078.18 L 4213.71 3079.2 L 4213.51 3079.82 L 4213.3 3080.23 L 4212.9 3080.64 L 4212.28 3080.84 L 4210.85 3080.84 M 4218.21 3076.55 L 4218.21 3080.84 M 4218.21 3080.84 L 4220.67 3080.84 M 4223.65 3076.55 L 4222.02 3080.84 M 4223.65 3076.55 L 4225.29 3080.84 M 4222.63 3079.41 L 4224.68 3079.41 M 4226.64 3076.55 L 4226.64 3080.84 M 4226.64 3076.55 L 4228.48 3076.55 L 4229.1 3076.75 L 4229.3 3076.95 L 4229.5 3077.36 L 4229.5 3077.77 L 4229.3 3078.18 L 4229.1 3078.39 L 4228.48 3078.59 L 4226.64 3078.59 M 4228.07 3078.59 L 4229.5 3080.84 M 4233.92 3077.57 L 4233.72 3077.16 L 4233.31 3076.75 L 4232.9 3076.55 L 4232.08 3076.55 L 4231.67 3076.75 L 4231.26 3077.16 L 4231.06 3077.57 L 4230.85 3078.18 L 4230.85 3079.2 L 4231.06 3079.82 L 4231.26 3080.23 L 4231.67 3080.64 L 4232.08 3080.84 L 4232.9 3080.84 L 4233.31 3080.64 L 4233.72 3080.23 L 4233.92 3079.82 L 4233.92 3079.2 M 4232.9 3079.2 L 4233.92 3079.2 M 4235.27 3076.55 L 4235.27 3080.84 M 4235.27 3076.55 L 4237.93 3076.55 M 4235.27 3078.59 L 4236.91 3078.59 M 4235.27 3080.84 L 4237.93 3080.84" fill="none" stroke-width="0.5" c_note="note_name"/></g><g c_partid="part_pcbtext" c_origin="4014,3005.45" c_rotation="0" c_mirror="" locked="0" layerid="3" c_shapetype="group"><path c_fontSize="4.5" c_fontFamily="" c_text="U3" d="M 4014 3003 L 4014 3006.06 L 4014.2 3006.68 L 4014.61 3007.09 L 4015.23 3007.29 L 4015.64 3007.29 L 4016.25 3007.09 L 4016.66 3006.68 L 4016.86 3006.06 L 4016.86 3003 M 4018.62 3003 L 4020.87 3003 L 4019.65 3004.63 L 4020.26 3004.63 L 4020.67 3004.84 L 4020.87 3005.04 L 4021.08 3005.65 L 4021.08 3006.06 L 4020.87 3006.68 L 4020.46 3007.09 L 4019.85 3007.29 L 4019.24 3007.29 L 4018.62 3007.09 L 4018.42 3006.88 L 4018.21 3006.47" fill="none" stroke-width="0.7" c_note="note_pre"/></g><g c_partid="part_pcbtext" c_origin="4063,3042" c_rotation="0" c_mirror="" locked="0" layerid="3" c_shapetype="group" display="none"><path c_fontSize="4.5" c_fontFamily="" c_text="WIREPAD LARGE" d="M 4063 3039.55 L 4064.02 3043.84 M 4065.05 3039.55 L 4064.02 3043.84 M 4065.05 3039.55 L 4066.07 3043.84 M 4067.09 3039.55 L 4066.07 3043.84 M 4068.44 3039.55 L 4068.44 3043.84 M 4069.79 3039.55 L 4069.79 3043.84 M 4069.79 3039.55 L 4071.63 3039.55 L 4072.25 3039.75 L 4072.45 3039.95 L 4072.65 3040.36 L 4072.65 3040.77 L 4072.45 3041.18 L 4072.25 3041.39 L 4071.63 3041.59 L 4069.79 3041.59 M 4071.22 3041.59 L 4072.65 3043.84 M 4074 3039.55 L 4074 3043.84 M 4074 3039.55 L 4076.66 3039.55 M 4074 3041.59 L 4075.64 3041.59 M 4074 3043.84 L 4076.66 3043.84 M 4078.01 3039.55 L 4078.01 3043.84 M 4078.01 3039.55 L 4079.85 3039.55 L 4080.47 3039.75 L 4080.67 3039.95 L 4080.88 3040.36 L 4080.88 3040.98 L 4080.67 3041.39 L 4080.47 3041.59 L 4079.85 3041.8 L 4078.01 3041.8 M 4083.86 3039.55 L 4082.23 3043.84 M 4083.86 3039.55 L 4085.5 3043.84 M 4082.84 3042.41 L 4084.89 3042.41 M 4086.85 3039.55 L 4086.85 3043.84 M 4086.85 3039.55 L 4088.28 3039.55 L 4088.9 3039.75 L 4089.3 3040.16 L 4089.51 3040.57 L 4089.71 3041.18 L 4089.71 3042.2 L 4089.51 3042.82 L 4089.3 3043.23 L 4088.9 3043.64 L 4088.28 3043.84 L 4086.85 3043.84 M 4094.21 3039.55 L 4094.21 3043.84 M 4094.21 3043.84 L 4096.67 3043.84 M 4099.65 3039.55 L 4098.02 3043.84 M 4099.65 3039.55 L 4101.29 3043.84 M 4098.63 3042.41 L 4100.68 3042.41 M 4102.64 3039.55 L 4102.64 3043.84 M 4102.64 3039.55 L 4104.48 3039.55 L 4105.1 3039.75 L 4105.3 3039.95 L 4105.5 3040.36 L 4105.5 3040.77 L 4105.3 3041.18 L 4105.1 3041.39 L 4104.48 3041.59 L 4102.64 3041.59 M 4104.07 3041.59 L 4105.5 3043.84 M 4109.92 3040.57 L 4109.72 3040.16 L 4109.31 3039.75 L 4108.9 3039.55 L 4108.08 3039.55 L 4107.67 3039.75 L 4107.26 3040.16 L 4107.06 3040.57 L 4106.85 3041.18 L 4106.85 3042.2 L 4107.06 3042.82 L 4107.26 3043.23 L 4107.67 3043.64 L 4108.08 3043.84 L 4108.9 3043.84 L 4109.31 3043.64 L 4109.72 3043.23 L 4109.92 3042.82 L 4109.92 3042.2 M 4108.9 3042.2 L 4109.92 3042.2 M 4111.27 3039.55 L 4111.27 3043.84 M 4111.27 3039.55 L 4113.93 3039.55 M 4111.27 3041.59 L 4112.91 3041.59 M 4111.27 3043.84 L 4113.93 3043.84" fill="none" stroke-width="0.5" c_note="note_name"/></g><path d="M 4155.095 3103.244 A 5.9193 5.9193 0 0 0 4166.9055 3103.2441 Z " stroke-width="0" c_shapetype="line" type="solid" layerid="3" locked="0" c_teardrop="" c_targetpad="" c_targetwire=""/><path d="M 4155.095 3081.244 A 5.9193 5.9193 0 0 0 4166.9055 3081.2441 Z " stroke-width="0" c_shapetype="line" type="solid" layerid="3" locked="0" c_teardrop="" c_targetpad="" c_targetwire=""/><circle cx="4161" cy="3103.047" r="5.906" stroke-width="1" fill="none" layerid="3" locked="0" c_shapetype="line"/><circle cx="4161" cy="3081.047" r="5.906" stroke-width="1" fill="none" layerid="3" locked="0" c_shapetype="line"/><polyline points="4131 3075 4146 3075" stroke-width="0.9" c_shapetype="line" stroke-linecap="round" fill="none" layerid="3" locked="0"/><polyline points="4131 3109 4131 3067 4146 3067 4146 3109 4131 3109" stroke-width="0.9" c_shapetype="line" stroke-linecap="round" fill="none" layerid="3" locked="0"/><polyline points="4107 3075 4122 3075" stroke-width="0.9" c_shapetype="line" stroke-linecap="round" fill="none" layerid="3" locked="0"/><polyline points="4107 3109 4107 3067 4122 3067 4122 3109 4107 3109" stroke-width="0.9" c_shapetype="line" stroke-linecap="round" fill="none" layerid="3" locked="0"/><polyline points="4099.087 3118.173 4084.913 3118.173" stroke-width="1" c_shapetype="line" stroke-linecap="round" fill="none" layerid="3" locked="0"/><polyline points="4099.087 3089.827 4099.087 3118.173" stroke-width="1" c_shapetype="line" stroke-linecap="round" fill="none" layerid="3" locked="0"/><polyline points="4084.913 3089.827 4099.087 3089.827" stroke-width="1" c_shapetype="line" stroke-linecap="round" fill="none" layerid="3" locked="0"/><polyline points="4084.913 3118.173 4084.913 3089.827" stroke-width="1" c_shapetype="line" stroke-linecap="round" fill="none" layerid="3" locked="0"/><polyline points="4084.913 3056.827 4099.087 3056.827" stroke-width="1" c_shapetype="line" stroke-linecap="round" fill="none" layerid="3" locked="0"/><polyline points="4084.913 3085.173 4084.913 3056.827" stroke-width="1" c_shapetype="line" stroke-linecap="round" fill="none" layerid="3" locked="0"/><polyline points="4099.087 3085.173 4084.913 3085.173" stroke-width="1" c_shapetype="line" stroke-linecap="round" fill="none" layerid="3" locked="0"/><polyline points="4099.087 3056.827 4099.087 3085.173" stroke-width="1" c_shapetype="line" stroke-linecap="round" fill="none" layerid="3" locked="0"/><polyline points="4161.039 3095.914 4161.039 3092.614" stroke-width="1" c_shapetype="line" stroke-linecap="round" fill="none" layerid="3" locked="0"/><polyline points="4159.543 3094.189 4162.643 3094.189" stroke-width="1" c_shapetype="line" stroke-linecap="round" fill="none" layerid="3" locked="0"/><polyline points="4161.039 3073.914 4161.039 3070.614" stroke-width="1" c_shapetype="line" stroke-linecap="round" fill="none" layerid="3" locked="0"/><polyline points="4159.543 3072.189 4162.643 3072.189" stroke-width="1" c_shapetype="line" stroke-linecap="round" fill="none" layerid="3" locked="0"/><polyline points="4054.11 3115.69 4074.11 3115.69 4074.11 3105.69 4054.11 3105.69 4054.11 3115.69" stroke-width="0.79" c_shapetype="line" stroke-linecap="round" fill="none" layerid="3" locked="0"/><polyline points="4073.89 3083.31 4053.89 3083.31 4053.89 3093.31 4073.89 3093.31 4073.89 3083.31" stroke-width="0.79" c_shapetype="line" stroke-linecap="round" fill="none" layerid="3" locked="0"/><rect x="4176.8" y="3116.8" width="24.4" height="10.4" stroke-width="0" fill="" transform="" layerid="7" locked="0" c_shapetype="line"/><rect x="4176.8" y="3116.8" width="24.4" height="10.4" stroke-width="0" fill="" transform="" layerid="7" locked="0" c_shapetype="line"/><rect x="4175.8" y="3049.8" width="25.4" height="10.4" stroke-width="0" fill="" transform="" layerid="7" locked="0" c_shapetype="line"/><g c_partid="part_via" c_etype="pinpart" c_shapetype="group" c_origin="4118,3106" layerid="7"><circle cx="4118" cy="3106" r="0.6" stroke-width="0"/><circle cx="4118" cy="3106" r="0.6" stroke-width="0"/></g><g c_partid="part_via" c_etype="pinpart" c_shapetype="group" c_origin="4150,3096" layerid="7"><circle cx="4150" cy="3096" r="0.6" stroke-width="0"/><circle cx="4150" cy="3096" r="0.6" stroke-width="0"/></g><g c_partid="part_via" c_etype="pinpart" c_shapetype="group" c_origin="4171,3095" layerid="7"><circle cx="4171" cy="3095" r="0.6" stroke-width="0"/><circle cx="4171" cy="3095" r="0.6" stroke-width="0"/></g><g c_partid="part_via" c_etype="pinpart" c_shapetype="group" c_origin="4187,3122" layerid="7"><circle cx="4187" cy="3122" r="0.6" stroke-width="0"/><circle cx="4187" cy="3122" r="0.6" stroke-width="0"/></g><g c_partid="part_via" c_etype="pinpart" c_shapetype="group" c_origin="4187,3055" layerid="7"><circle cx="4187" cy="3055" r="0.6" stroke-width="0"/><circle cx="4187" cy="3055" r="0.6" stroke-width="0"/></g><g c_partid="part_pad" c_etype="pinpart" c_origin="4058.9,3088.3" layerid="7" plated="Y" locked="0" c_rotation="0" c_width="4.7" c_height="4.7" c_shape="ELLIPSE" pasteExpansion="0" solderExpansion="0.4"><ellipse cx="4058.9" cy="3088.3" rx="2.35" ry="2.35" layerid="7" stroke-width="0"/><circle cx="4058.9" cy="3088.3" r="1.4" layerid="7" stroke-width="0"/></g><g c_partid="part_pad" c_etype="pinpart" c_origin="4068.9,3088.3" layerid="7" plated="Y" locked="0" c_rotation="0" c_width="4.7" c_height="4.7" c_shape="ELLIPSE" pasteExpansion="0" solderExpansion="0.4"><ellipse cx="4068.9" cy="3088.3" rx="2.35" ry="2.35" layerid="7" stroke-width="0"/><circle cx="4068.9" cy="3088.3" r="1.4" layerid="7" stroke-width="0"/></g><g c_partid="part_pad" c_etype="pinpart" c_origin="4069.1,3110.7" layerid="7" plated="Y" locked="0" c_rotation="180" c_width="4.7" c_height="4.7" c_shape="ELLIPSE" pasteExpansion="0" solderExpansion="0.4"><ellipse cx="4069.1" cy="3110.7" rx="2.35" ry="2.35" layerid="7" stroke-width="0"/><circle cx="4069.1" cy="3110.7" r="1.4" layerid="7" stroke-width="0"/></g><g c_partid="part_pad" c_etype="pinpart" c_origin="4059.1,3110.7" layerid="7" plated="Y" locked="0" c_rotation="180" c_width="4.7" c_height="4.7" c_shape="ELLIPSE" pasteExpansion="0" solderExpansion="0.4"><ellipse cx="4059.1" cy="3110.7" rx="2.35" ry="2.35" layerid="7" stroke-width="0"/><circle cx="4059.1" cy="3110.7" r="1.4" layerid="7" stroke-width="0"/></g><g c_partid="part_pad" c_etype="pinpart" c_origin="4161,3084" layerid="7" plated="Y" locked="0" c_rotation="0" c_width="3.937" c_height="3.937" c_shape="ELLIPSE" pasteExpansion="0" solderExpansion="0.4"><ellipse cx="4161" cy="3084" rx="1.9685" ry="1.9685" layerid="7" stroke-width="0"/><circle cx="4161" cy="3084" r="1.378" layerid="7" stroke-width="0"/></g><g c_partid="part_pad" c_etype="pinpart" c_origin="4161,3078.09" layerid="7" plated="Y" locked="0" c_rotation="0" c_width="3.937" c_height="3.937" c_shape="ELLIPSE" pasteExpansion="0" solderExpansion="0.4"><ellipse cx="4161" cy="3078.09" rx="1.9685" ry="1.9685" layerid="7" stroke-width="0"/><circle cx="4161" cy="3078.09" r="1.378" layerid="7" stroke-width="0"/></g><g c_partid="part_pad" c_etype="pinpart" c_origin="4161,3106" layerid="7" plated="Y" locked="0" c_rotation="0" c_width="3.937" c_height="3.937" c_shape="ELLIPSE" pasteExpansion="0" solderExpansion="0.4"><ellipse cx="4161" cy="3106" rx="1.9685" ry="1.9685" layerid="7" stroke-width="0"/><circle cx="4161" cy="3106" r="1.378" layerid="7" stroke-width="0"/></g><g c_partid="part_pad" c_etype="pinpart" c_origin="4161,3100.09" layerid="7" plated="Y" locked="0" c_rotation="0" c_width="3.937" c_height="3.937" c_shape="ELLIPSE" pasteExpansion="0" solderExpansion="0.4"><ellipse cx="4161" cy="3100.09" rx="1.9685" ry="1.9685" layerid="7" stroke-width="0"/><circle cx="4161" cy="3100.09" r="1.378" layerid="7" stroke-width="0"/></g><g c_partid="part_pad" c_etype="pinpart" c_origin="4092,3061" layerid="7" plated="Y" locked="0" c_rotation="270" c_width="6" c_height="6" c_shape="ELLIPSE" pasteExpansion="0" solderExpansion="0.4"><ellipse cx="4092" cy="3061" rx="3" ry="3" layerid="7" stroke-width="0"/><circle cx="4092" cy="3061" r="1.8" layerid="7" stroke-width="0"/></g><g c_partid="part_pad" c_etype="pinpart" c_origin="4092,3081" layerid="7" plated="Y" locked="0" c_rotation="270" c_width="6" c_height="6" c_shape="ELLIPSE" pasteExpansion="0" solderExpansion="0.4"><ellipse cx="4092" cy="3081" rx="3" ry="3" layerid="7" stroke-width="0"/><circle cx="4092" cy="3081" r="1.8" layerid="7" stroke-width="0"/></g><g c_partid="part_pad" c_etype="pinpart" c_origin="4092,3114" layerid="7" plated="Y" locked="0" c_rotation="90" c_width="6" c_height="6" c_shape="ELLIPSE" pasteExpansion="0" solderExpansion="0.4"><ellipse cx="4092" cy="3114" rx="3" ry="3" layerid="7" stroke-width="0"/><circle cx="4092" cy="3114" r="1.8" layerid="7" stroke-width="0"/></g><g c_partid="part_pad" c_etype="pinpart" c_origin="4092,3094" layerid="7" plated="Y" locked="0" c_rotation="90" c_width="6" c_height="6" c_shape="ELLIPSE" pasteExpansion="0" solderExpansion="0.4"><ellipse cx="4092" cy="3094" rx="3" ry="3" layerid="7" stroke-width="0"/><circle cx="4092" cy="3094" r="1.8" layerid="7" stroke-width="0"/></g><g c_partid="part_pad" c_etype="pinpart" c_origin="4115,3116" layerid="7" plated="Y" locked="0" c_rotation="90" c_width="8.5" c_height="8.5" c_shape="ELLIPSE" pasteExpansion="0" solderExpansion="0.4"><ellipse cx="4115" cy="3116" rx="4.25" ry="4.25" layerid="7" stroke-width="0"/><circle cx="4115" cy="3116" r="1.75" layerid="7" stroke-width="0"/></g><g c_partid="part_pad" c_etype="pinpart" c_origin="4115,3060" layerid="7" plated="Y" locked="0" c_rotation="90" c_width="8.5" c_height="8.5" c_shape="ELLIPSE" pasteExpansion="0" solderExpansion="0.4"><ellipse cx="4115" cy="3060" rx="4.25" ry="4.25" layerid="7" stroke-width="0"/><circle cx="4115" cy="3060" r="1.75" layerid="7" stroke-width="0"/></g><g c_partid="part_pad" c_etype="pinpart" c_origin="4139,3116" layerid="7" plated="Y" locked="0" c_rotation="90" c_width="8.5" c_height="8.5" c_shape="ELLIPSE" pasteExpansion="0" solderExpansion="0.4"><ellipse cx="4139" cy="3116" rx="4.25" ry="4.25" layerid="7" stroke-width="0"/><circle cx="4139" cy="3116" r="1.75" layerid="7" stroke-width="0"/></g><g c_partid="part_pad" c_etype="pinpart" c_origin="4139,3060" layerid="7" plated="Y" locked="0" c_rotation="90" c_width="8.5" c_height="8.5" c_shape="ELLIPSE" pasteExpansion="0" solderExpansion="0.4"><ellipse cx="4139" cy="3060" rx="4.25" ry="4.25" layerid="7" stroke-width="0"/><circle cx="4139" cy="3060" r="1.75" layerid="7" stroke-width="0"/></g><g c_partid="part_pad" c_etype="pinpart" c_origin="4187,3081" layerid="7" plated="Y" locked="0" c_rotation="0" c_width="13.779" c_height="13.779" c_shape="ELLIPSE" pasteExpansion="0" solderExpansion="0.4"><ellipse cx="4187" cy="3081" rx="6.8895" ry="6.8895" layerid="7" stroke-width="0"/><circle cx="4187" cy="3081" r="3.937" layerid="7" stroke-width="0"/></g><g c_partid="part_pad" c_etype="pinpart" c_origin="4187,3100" layerid="7" plated="Y" locked="0" c_rotation="0" c_width="13.779" c_height="13.779" c_shape="ELLIPSE" pasteExpansion="0" solderExpansion="0.4"><ellipse cx="4187" cy="3100" rx="6.8895" ry="6.8895" layerid="7" stroke-width="0"/><circle cx="4187" cy="3100" r="3.937" layerid="7" stroke-width="0"/></g><g c_partid="part_pad" c_etype="pinpart" c_origin="4063,3063" layerid="7" plated="Y" locked="0" c_rotation="0" c_width="13.779" c_height="13.779" c_shape="ELLIPSE" pasteExpansion="0" solderExpansion="0.4"><ellipse cx="4063" cy="3063" rx="6.8895" ry="6.8895" layerid="7" stroke-width="0"/><circle cx="4063" cy="3063" r="3.937" layerid="7" stroke-width="0"/></g></g></svg>