;PTH Drill file created by EasyEDA 
M48
INCH,LZ,00.0000
;Holesize 1 = 0.012 INCH
T01C0.012
;Holesize 2 = 0.028 INCH
T02C0.028
;Holesize 3 = 0.028 INCH
T03C0.028
;Holesize 4 = 0.035 INCH
T04C0.035
;Holesize 5 = 0.036 INCH
T05C0.036
;Holesize 6 = 0.079 INCH
T06C0.079
%
G05
G90
T01
X+006800Y+002100
X+010000Y+003100
X+012100Y+003200
X+013700Y+000500
X+013700Y+007200
T02
X+011100Y+004300
X+011100Y+004890
X+011100Y+002100
X+011100Y+002690
T03
X+000890Y+003869
X+001890Y+003869
X+001909Y+001630
X+000909Y+001630
T04
X+006500Y+001100
X+006500Y+006700
X+008900Y+001100
X+008900Y+006700
T05
X+004200Y+006600
X+004200Y+004600
X+004200Y+001300
X+004200Y+003300
T06
X+013700Y+004600
X+013700Y+002700
X+001300Y+006400
M30
