G04 ---------------------------- Layer name :TOP LAYER*
G04 EasyEDA v5.8.22, Sun, 02 Dec 2018 06:11:37 GMT*
G04 d5963adffaad412e904dfcf3e3a13330*
G04 Gerber Generator version 0.2*
G04 Scale: 100 percent, Rotated: No, Reflected: No *
G04 Dimensions in inches *
G04 leading zeros omitted , absolute positions ,2 integer and 4 decimal *
%FSLAX24Y24*%
%MOIN*%
G90*
G70D02*

%ADD11C,0.020000*%
%ADD12C,0.008000*%
%ADD13C,0.024400*%
%ADD14C,0.047000*%
%ADD15C,0.039370*%
%ADD16C,0.060000*%
%ADD17C,0.085000*%
%ADD18C,0.137790*%

%LPD*%
G54D11*
G01X1300Y6400D02*
G01X1300Y5600D01*
G01X800Y5100D01*
G01X800Y3959D01*
G01X890Y3869D01*
G01X909Y1630D02*
G01X909Y3850D01*
G01X890Y3869D01*
G01X1890Y3869D02*
G01X1890Y5190D01*
G01X3100Y6400D01*
G01X4000Y6400D01*
G01X4200Y6600D01*
G01X1909Y1630D02*
G01X1909Y2409D01*
G01X2800Y3300D01*
G01X4200Y3300D01*
G01X4200Y6600D02*
G01X6400Y6600D01*
G01X6500Y6700D01*
G01X8900Y6700D02*
G01X9900Y6700D01*
G01X10100Y6500D01*
G01X10100Y4700D01*
G01X10500Y4300D01*
G01X11100Y4300D01*
G01X11100Y2690D02*
G01X11100Y4300D01*
G01X11100Y2690D02*
G01X8090Y2690D01*
G01X6500Y1100D01*
G01X13700Y4600D02*
G01X11390Y4600D01*
G01X11100Y4890D01*
G01X13700Y2700D02*
G01X12600Y2700D01*
G01X12000Y2100D01*
G01X11100Y2100D01*
G01X6800Y2100D02*
G01X7800Y3100D01*
G01X10000Y3100D01*
G01X11100Y3615D02*
G01X11684Y3615D01*
G01X12100Y3200D01*
G54D12*
G01X14227Y6300D02*
G01X14227Y5646D01*
G01X13900Y5973D02*
G01X14555Y5973D01*
G01X13900Y1500D02*
G01X14555Y1500D01*
G36*
G01X12600Y7700D02*
G01X15100Y7700D01*
G01X15100Y6700D01*
G01X12600Y6700D01*
G01X12600Y7700D01*
G37*
G36*
G01X12700Y1000D02*
G01X15100Y1000D01*
G01X15100Y0D01*
G01X12700Y0D01*
G01X12700Y1000D01*
G37*
G54D14*
G01X890Y3869D03*
G01X1890Y3869D03*
G01X1909Y1630D03*
G01X909Y1630D03*
G54D15*
G01X11100Y4300D03*
G01X11100Y4890D03*
G01X11100Y2100D03*
G01X11100Y2690D03*
G54D16*
G01X4200Y6600D03*
G01X4200Y4600D03*
G01X4200Y1300D03*
G01X4200Y3300D03*
G54D17*
G01X6500Y1100D03*
G01X6500Y6700D03*
G01X8900Y1100D03*
G01X8900Y6700D03*
G54D18*
G01X13700Y4600D03*
G01X13700Y2700D03*
G01X1300Y6400D03*
G54D13*
G01X6800Y2100D03*
G01X10000Y3100D03*
G01X12100Y3200D03*
G01X13700Y500D03*
G01X13700Y7200D03*
M00*
M02*
