G04 ---------------------------- Layer name :TOP SILK LAYER*
G04 EasyEDA v5.8.22, Sun, 02 Dec 2018 06:11:37 GMT*
G04 d5963adffaad412e904dfcf3e3a13330*
G04 Gerber Generator version 0.2*
G04 Scale: 100 percent, Rotated: No, Reflected: No *
G04 Dimensions in inches *
G04 leading zeros omitted , absolute positions ,2 integer and 4 decimal *
%FSLAX24Y24*%
%MOIN*%
G90*
G70D02*

%ADD10C,0.010000*%
%ADD19C,0.007900*%
%ADD20C,0.009000*%
%ADD21C,0.007000*%

%LPD*%
G54D19*
G01X2388Y4369D02*
G01X388Y4369D01*
G01X388Y3369D01*
G01X2388Y3369D01*
G01X2388Y4369D01*
G01X411Y1130D02*
G01X2411Y1130D01*
G01X2411Y2130D01*
G01X411Y2130D01*
G01X411Y1130D01*
G54D10*
G01X10954Y5481D02*
G01X11264Y5481D01*
G01X11103Y5308D02*
G01X11103Y5638D01*
G01X10954Y3281D02*
G01X11264Y3281D01*
G01X11103Y3108D02*
G01X11103Y3438D01*
G01X4908Y7017D02*
G01X4908Y4182D01*
G01X4908Y4182D02*
G01X3491Y4182D01*
G01X3491Y4182D02*
G01X3491Y7017D01*
G01X3491Y7017D02*
G01X4908Y7017D01*
G01X3491Y882D02*
G01X3491Y3717D01*
G01X3491Y3717D02*
G01X4908Y3717D01*
G01X4908Y3717D02*
G01X4908Y882D01*
G01X4908Y882D02*
G01X3491Y882D01*
G54D20*
G01X5700Y1800D02*
G01X5700Y6000D01*
G01X7200Y6000D01*
G01X7200Y1800D01*
G01X5700Y1800D01*
G01X5700Y5200D02*
G01X7200Y5200D01*
G01X8100Y1800D02*
G01X8100Y6000D01*
G01X9600Y6000D01*
G01X9600Y1800D01*
G01X8100Y1800D01*
G01X8100Y5200D02*
G01X9600Y5200D01*
G54D21*
G01X1607Y5042D02*
G01X1586Y5084D01*
G01X1544Y5125D01*
G01X1505Y5144D01*
G01X1423Y5144D01*
G01X1382Y5125D01*
G01X1340Y5084D01*
G01X1319Y5042D01*
G01X1300Y4982D01*
G01X1300Y4880D01*
G01X1319Y4817D01*
G01X1340Y4776D01*
G01X1382Y4736D01*
G01X1423Y4715D01*
G01X1505Y4715D01*
G01X1544Y4736D01*
G01X1586Y4776D01*
G01X1607Y4817D01*
G01X1742Y5063D02*
G01X1782Y5084D01*
G01X1844Y5144D01*
G01X1844Y4715D01*
G01X1807Y742D02*
G01X1786Y784D01*
G01X1744Y825D01*
G01X1705Y844D01*
G01X1623Y844D01*
G01X1582Y825D01*
G01X1540Y784D01*
G01X1519Y742D01*
G01X1500Y682D01*
G01X1500Y580D01*
G01X1519Y517D01*
G01X1540Y476D01*
G01X1582Y436D01*
G01X1623Y415D01*
G01X1705Y415D01*
G01X1744Y436D01*
G01X1786Y476D01*
G01X1807Y517D01*
G01X1961Y742D02*
G01X1961Y763D01*
G01X1982Y805D01*
G01X2003Y825D01*
G01X2044Y844D01*
G01X2126Y844D01*
G01X2167Y825D01*
G01X2186Y805D01*
G01X2207Y763D01*
G01X2207Y723D01*
G01X2186Y682D01*
G01X2146Y619D01*
G01X1942Y415D01*
G01X2228Y415D01*
G01X11006Y6198D02*
G01X10985Y6238D01*
G01X10944Y6280D01*
G01X10905Y6300D01*
G01X10822Y6300D01*
G01X10781Y6280D01*
G01X10740Y6238D01*
G01X10719Y6198D01*
G01X10700Y6136D01*
G01X10700Y6034D01*
G01X10719Y5973D01*
G01X10740Y5932D01*
G01X10781Y5890D01*
G01X10822Y5871D01*
G01X10905Y5871D01*
G01X10944Y5890D01*
G01X10985Y5932D01*
G01X11006Y5973D01*
G01X11182Y6300D02*
G01X11407Y6300D01*
G01X11285Y6136D01*
G01X11346Y6136D01*
G01X11386Y6115D01*
G01X11407Y6096D01*
G01X11427Y6034D01*
G01X11427Y5994D01*
G01X11407Y5932D01*
G01X11367Y5890D01*
G01X11305Y5871D01*
G01X11243Y5871D01*
G01X11182Y5890D01*
G01X11161Y5911D01*
G01X11142Y5953D01*
G01X11006Y1398D02*
G01X10985Y1438D01*
G01X10944Y1480D01*
G01X10905Y1500D01*
G01X10822Y1500D01*
G01X10781Y1480D01*
G01X10740Y1438D01*
G01X10719Y1398D01*
G01X10700Y1336D01*
G01X10700Y1234D01*
G01X10719Y1173D01*
G01X10740Y1132D01*
G01X10781Y1090D01*
G01X10822Y1071D01*
G01X10905Y1071D01*
G01X10944Y1090D01*
G01X10985Y1132D01*
G01X11006Y1173D01*
G01X11346Y1500D02*
G01X11142Y1213D01*
G01X11448Y1213D01*
G01X11346Y1500D02*
G01X11346Y1071D01*
G01X2900Y5276D02*
G01X3329Y5276D01*
G01X2900Y5276D02*
G01X2900Y5419D01*
G01X2920Y5480D01*
G01X2961Y5521D01*
G01X3002Y5542D01*
G01X3063Y5561D01*
G01X3165Y5561D01*
G01X3227Y5542D01*
G01X3268Y5521D01*
G01X3309Y5480D01*
G01X3329Y5419D01*
G01X3329Y5276D01*
G01X2981Y5696D02*
G01X2961Y5738D01*
G01X2900Y5800D01*
G01X3329Y5800D01*
G01X2800Y2091D02*
G01X3228Y2091D01*
G01X2800Y2091D02*
G01X2800Y2234D01*
G01X2819Y2296D01*
G01X2861Y2336D01*
G01X2901Y2357D01*
G01X2963Y2377D01*
G01X3065Y2377D01*
G01X3126Y2357D01*
G01X3167Y2336D01*
G01X3209Y2296D01*
G01X3228Y2234D01*
G01X3228Y2091D01*
G01X2901Y2533D02*
G01X2880Y2533D01*
G01X2840Y2553D01*
G01X2819Y2574D01*
G01X2800Y2615D01*
G01X2800Y2696D01*
G01X2819Y2737D01*
G01X2840Y2758D01*
G01X2880Y2778D01*
G01X2921Y2778D01*
G01X2963Y2758D01*
G01X3025Y2717D01*
G01X3228Y2512D01*
G01X3228Y2799D01*
G01X5100Y3591D02*
G01X5529Y3591D01*
G01X5100Y3591D02*
G01X5100Y3734D01*
G01X5120Y3796D01*
G01X5161Y3836D01*
G01X5202Y3857D01*
G01X5263Y3877D01*
G01X5365Y3877D01*
G01X5427Y3857D01*
G01X5468Y3836D01*
G01X5509Y3796D01*
G01X5529Y3734D01*
G01X5529Y3591D01*
G01X5100Y4053D02*
G01X5100Y4278D01*
G01X5263Y4156D01*
G01X5263Y4217D01*
G01X5284Y4258D01*
G01X5304Y4278D01*
G01X5365Y4299D01*
G01X5406Y4299D01*
G01X5468Y4278D01*
G01X5509Y4237D01*
G01X5529Y4176D01*
G01X5529Y4115D01*
G01X5509Y4053D01*
G01X5488Y4033D01*
G01X5447Y4012D01*
G01X7500Y3471D02*
G01X7929Y3471D01*
G01X7500Y3471D02*
G01X7500Y3615D01*
G01X7520Y3676D01*
G01X7561Y3717D01*
G01X7602Y3738D01*
G01X7663Y3757D01*
G01X7765Y3757D01*
G01X7827Y3738D01*
G01X7868Y3717D01*
G01X7909Y3676D01*
G01X7929Y3615D01*
G01X7929Y3471D01*
G01X7500Y4098D02*
G01X7786Y3892D01*
G01X7786Y4200D01*
G01X7500Y4098D02*
G01X7929Y4098D01*
G01X13000Y6200D02*
G01X13000Y5894D01*
G01X13019Y5832D01*
G01X13060Y5790D01*
G01X13122Y5771D01*
G01X13164Y5771D01*
G01X13225Y5790D01*
G01X13265Y5832D01*
G01X13285Y5894D01*
G01X13285Y6200D01*
G01X13421Y6119D02*
G01X13461Y6138D01*
G01X13523Y6200D01*
G01X13523Y5771D01*
G01X13000Y1600D02*
G01X13000Y1294D01*
G01X13019Y1232D01*
G01X13060Y1190D01*
G01X13122Y1171D01*
G01X13164Y1171D01*
G01X13225Y1190D01*
G01X13265Y1232D01*
G01X13285Y1294D01*
G01X13285Y1600D01*
G01X13442Y1498D02*
G01X13442Y1519D01*
G01X13461Y1559D01*
G01X13482Y1580D01*
G01X13523Y1600D01*
G01X13605Y1600D01*
G01X13646Y1580D01*
G01X13667Y1559D01*
G01X13686Y1519D01*
G01X13686Y1478D01*
G01X13667Y1436D01*
G01X13626Y1375D01*
G01X13421Y1171D01*
G01X13707Y1171D01*
G01X500Y8400D02*
G01X500Y8094D01*
G01X519Y8032D01*
G01X561Y7990D01*
G01X623Y7971D01*
G01X663Y7971D01*
G01X725Y7990D01*
G01X765Y8032D01*
G01X786Y8094D01*
G01X786Y8400D01*
G01X961Y8400D02*
G01X1186Y8400D01*
G01X1065Y8236D01*
G01X1126Y8236D01*
G01X1167Y8215D01*
G01X1186Y8196D01*
G01X1207Y8134D01*
G01X1207Y8094D01*
G01X1186Y8032D01*
G01X1146Y7990D01*
G01X1084Y7971D01*
G01X1023Y7971D01*
G01X961Y7990D01*
G01X942Y8011D01*
G01X921Y8053D01*
G54D10*
G75*
G01X11691Y4595D02*
G03X11691Y4595I-591J0D01*
G01*
G75*
G01X11691Y2395D02*
G03X11691Y2395I-591J0D01*
G01*

%LPD*%
G36*
G01X11690Y4575D02*
G01X10509Y4575D01*
G01X10509Y4575D01*
G01X10510Y4565D01*
G01X10511Y4555D01*
G01X10512Y4544D01*
G01X10513Y4534D01*
G01X10515Y4524D01*
G01X10517Y4514D01*
G01X10518Y4503D01*
G01X10520Y4493D01*
G01X10523Y4483D01*
G01X10525Y4473D01*
G01X10528Y4463D01*
G01X10530Y4453D01*
G01X10533Y4443D01*
G01X10536Y4433D01*
G01X10540Y4424D01*
G01X10543Y4414D01*
G01X10547Y4404D01*
G01X10551Y4395D01*
G01X10554Y4385D01*
G01X10559Y4375D01*
G01X10563Y4366D01*
G01X10567Y4357D01*
G01X10572Y4347D01*
G01X10577Y4338D01*
G01X10582Y4329D01*
G01X10587Y4320D01*
G01X10592Y4311D01*
G01X10597Y4302D01*
G01X10603Y4294D01*
G01X10609Y4285D01*
G01X10614Y4277D01*
G01X10620Y4268D01*
G01X10627Y4260D01*
G01X10633Y4252D01*
G01X10639Y4244D01*
G01X10646Y4236D01*
G01X10653Y4228D01*
G01X10659Y4220D01*
G01X10666Y4212D01*
G01X10674Y4205D01*
G01X10681Y4197D01*
G01X10688Y4190D01*
G01X10696Y4183D01*
G01X10703Y4176D01*
G01X10711Y4169D01*
G01X10719Y4163D01*
G01X10727Y4156D01*
G01X10735Y4150D01*
G01X10743Y4143D01*
G01X10751Y4137D01*
G01X10760Y4131D01*
G01X10768Y4125D01*
G01X10777Y4120D01*
G01X10786Y4114D01*
G01X10794Y4109D01*
G01X10803Y4103D01*
G01X10812Y4098D01*
G01X10821Y4093D01*
G01X10831Y4089D01*
G01X10840Y4084D01*
G01X10849Y4079D01*
G01X10859Y4075D01*
G01X10868Y4071D01*
G01X10878Y4067D01*
G01X10887Y4063D01*
G01X10897Y4060D01*
G01X10907Y4056D01*
G01X10916Y4053D01*
G01X10926Y4050D01*
G01X10936Y4047D01*
G01X10946Y4044D01*
G01X10956Y4042D01*
G01X10966Y4039D01*
G01X10976Y4037D01*
G01X10987Y4035D01*
G01X10997Y4033D01*
G01X11007Y4031D01*
G01X11017Y4030D01*
G01X11027Y4028D01*
G01X11038Y4027D01*
G01X11048Y4026D01*
G01X11058Y4025D01*
G01X11069Y4025D01*
G01X11079Y4024D01*
G01X11089Y4024D01*
G01X11100Y4024D01*
G01X11110Y4024D01*
G01X11120Y4024D01*
G01X11131Y4025D01*
G01X11141Y4025D01*
G01X11151Y4026D01*
G01X11161Y4027D01*
G01X11172Y4028D01*
G01X11182Y4030D01*
G01X11192Y4031D01*
G01X11202Y4033D01*
G01X11213Y4035D01*
G01X11223Y4037D01*
G01X11233Y4039D01*
G01X11243Y4042D01*
G01X11253Y4044D01*
G01X11263Y4047D01*
G01X11273Y4050D01*
G01X11283Y4053D01*
G01X11292Y4056D01*
G01X11302Y4060D01*
G01X11312Y4063D01*
G01X11321Y4067D01*
G01X11331Y4071D01*
G01X11340Y4075D01*
G01X11350Y4079D01*
G01X11359Y4084D01*
G01X11368Y4089D01*
G01X11378Y4093D01*
G01X11387Y4098D01*
G01X11396Y4103D01*
G01X11405Y4109D01*
G01X11413Y4114D01*
G01X11422Y4120D01*
G01X11431Y4125D01*
G01X11439Y4131D01*
G01X11448Y4137D01*
G01X11456Y4143D01*
G01X11464Y4150D01*
G01X11472Y4156D01*
G01X11480Y4163D01*
G01X11488Y4169D01*
G01X11496Y4176D01*
G01X11503Y4183D01*
G01X11511Y4190D01*
G01X11518Y4197D01*
G01X11526Y4205D01*
G01X11533Y4212D01*
G01X11540Y4220D01*
G01X11546Y4228D01*
G01X11553Y4236D01*
G01X11560Y4244D01*
G01X11566Y4252D01*
G01X11572Y4260D01*
G01X11579Y4268D01*
G01X11585Y4277D01*
G01X11590Y4285D01*
G01X11596Y4294D01*
G01X11602Y4302D01*
G01X11607Y4311D01*
G01X11612Y4320D01*
G01X11617Y4329D01*
G01X11622Y4338D01*
G01X11627Y4347D01*
G01X11632Y4357D01*
G01X11636Y4366D01*
G01X11640Y4375D01*
G01X11645Y4385D01*
G01X11649Y4394D01*
G01X11652Y4404D01*
G01X11656Y4414D01*
G01X11659Y4424D01*
G01X11663Y4433D01*
G01X11666Y4443D01*
G01X11669Y4453D01*
G01X11671Y4463D01*
G01X11674Y4473D01*
G01X11676Y4483D01*
G01X11679Y4493D01*
G01X11681Y4503D01*
G01X11683Y4514D01*
G01X11684Y4524D01*
G01X11686Y4534D01*
G01X11687Y4544D01*
G01X11688Y4554D01*
G01X11689Y4565D01*
G01X11690Y4575D01*
G01X11690Y4575D01*
G37*

%LPD*%
G36*
G01X11690Y2375D02*
G01X10509Y2375D01*
G01X10509Y2375D01*
G01X10510Y2365D01*
G01X10511Y2355D01*
G01X10512Y2344D01*
G01X10513Y2334D01*
G01X10515Y2324D01*
G01X10517Y2314D01*
G01X10518Y2303D01*
G01X10520Y2293D01*
G01X10523Y2283D01*
G01X10525Y2273D01*
G01X10528Y2263D01*
G01X10530Y2253D01*
G01X10533Y2243D01*
G01X10536Y2233D01*
G01X10540Y2224D01*
G01X10543Y2214D01*
G01X10547Y2204D01*
G01X10551Y2195D01*
G01X10554Y2185D01*
G01X10559Y2175D01*
G01X10563Y2166D01*
G01X10567Y2157D01*
G01X10572Y2147D01*
G01X10577Y2138D01*
G01X10582Y2129D01*
G01X10587Y2120D01*
G01X10592Y2111D01*
G01X10597Y2102D01*
G01X10603Y2094D01*
G01X10609Y2085D01*
G01X10614Y2077D01*
G01X10620Y2068D01*
G01X10627Y2060D01*
G01X10633Y2052D01*
G01X10639Y2044D01*
G01X10646Y2036D01*
G01X10653Y2028D01*
G01X10659Y2020D01*
G01X10666Y2012D01*
G01X10674Y2005D01*
G01X10681Y1997D01*
G01X10688Y1990D01*
G01X10696Y1983D01*
G01X10703Y1976D01*
G01X10711Y1969D01*
G01X10719Y1963D01*
G01X10727Y1956D01*
G01X10735Y1950D01*
G01X10743Y1943D01*
G01X10751Y1937D01*
G01X10760Y1931D01*
G01X10768Y1925D01*
G01X10777Y1920D01*
G01X10786Y1914D01*
G01X10794Y1909D01*
G01X10803Y1903D01*
G01X10812Y1898D01*
G01X10821Y1893D01*
G01X10831Y1889D01*
G01X10840Y1884D01*
G01X10849Y1879D01*
G01X10859Y1875D01*
G01X10868Y1871D01*
G01X10878Y1867D01*
G01X10887Y1863D01*
G01X10897Y1860D01*
G01X10907Y1856D01*
G01X10916Y1853D01*
G01X10926Y1850D01*
G01X10936Y1847D01*
G01X10946Y1844D01*
G01X10956Y1842D01*
G01X10966Y1839D01*
G01X10976Y1837D01*
G01X10987Y1835D01*
G01X10997Y1833D01*
G01X11007Y1831D01*
G01X11017Y1830D01*
G01X11027Y1828D01*
G01X11038Y1827D01*
G01X11048Y1826D01*
G01X11058Y1825D01*
G01X11069Y1825D01*
G01X11079Y1824D01*
G01X11089Y1824D01*
G01X11100Y1824D01*
G01X11110Y1824D01*
G01X11120Y1824D01*
G01X11131Y1825D01*
G01X11141Y1825D01*
G01X11151Y1826D01*
G01X11161Y1827D01*
G01X11172Y1828D01*
G01X11182Y1830D01*
G01X11192Y1831D01*
G01X11202Y1833D01*
G01X11213Y1835D01*
G01X11223Y1837D01*
G01X11233Y1839D01*
G01X11243Y1842D01*
G01X11253Y1844D01*
G01X11263Y1847D01*
G01X11273Y1850D01*
G01X11283Y1853D01*
G01X11292Y1856D01*
G01X11302Y1860D01*
G01X11312Y1863D01*
G01X11321Y1867D01*
G01X11331Y1871D01*
G01X11340Y1875D01*
G01X11350Y1879D01*
G01X11359Y1884D01*
G01X11368Y1889D01*
G01X11378Y1893D01*
G01X11387Y1898D01*
G01X11396Y1903D01*
G01X11405Y1909D01*
G01X11413Y1914D01*
G01X11422Y1920D01*
G01X11431Y1925D01*
G01X11439Y1931D01*
G01X11448Y1937D01*
G01X11456Y1943D01*
G01X11464Y1950D01*
G01X11472Y1956D01*
G01X11480Y1963D01*
G01X11488Y1969D01*
G01X11496Y1976D01*
G01X11503Y1983D01*
G01X11511Y1990D01*
G01X11518Y1997D01*
G01X11526Y2005D01*
G01X11533Y2012D01*
G01X11540Y2020D01*
G01X11546Y2028D01*
G01X11553Y2036D01*
G01X11560Y2044D01*
G01X11566Y2052D01*
G01X11572Y2060D01*
G01X11579Y2068D01*
G01X11585Y2077D01*
G01X11590Y2085D01*
G01X11596Y2094D01*
G01X11602Y2102D01*
G01X11607Y2111D01*
G01X11612Y2120D01*
G01X11617Y2129D01*
G01X11622Y2138D01*
G01X11627Y2147D01*
G01X11632Y2157D01*
G01X11636Y2166D01*
G01X11640Y2175D01*
G01X11645Y2185D01*
G01X11649Y2194D01*
G01X11652Y2204D01*
G01X11656Y2214D01*
G01X11659Y2224D01*
G01X11663Y2233D01*
G01X11666Y2243D01*
G01X11669Y2253D01*
G01X11671Y2263D01*
G01X11674Y2273D01*
G01X11676Y2283D01*
G01X11679Y2293D01*
G01X11681Y2303D01*
G01X11683Y2314D01*
G01X11684Y2324D01*
G01X11686Y2334D01*
G01X11687Y2344D01*
G01X11688Y2354D01*
G01X11689Y2365D01*
G01X11690Y2375D01*
G01X11690Y2375D01*
G37*
M00*
M02*
