G04 ---------------------------- Layer name :BOTTOM LAYER*
G04 EasyEDA v5.8.22, Sun, 02 Dec 2018 06:11:37 GMT*
G04 d5963adffaad412e904dfcf3e3a13330*
G04 Gerber Generator version 0.2*
G04 Scale: 100 percent, Rotated: No, Reflected: No *
G04 Dimensions in inches *
G04 leading zeros omitted , absolute positions ,2 integer and 4 decimal *
%FSLAX24Y24*%
%MOIN*%
G90*
G70D02*

%ADD11C,0.020000*%
%ADD12C,0.008000*%
%ADD13C,0.024400*%
%ADD14C,0.047000*%
%ADD15C,0.039370*%
%ADD16C,0.060000*%
%ADD17C,0.085000*%
%ADD18C,0.137790*%

%LPD*%
G36*
G01X12700Y0D02*
G01X0Y0D01*
G01X0Y7700D01*
G01X12500Y7700D01*
G01X12500Y7382D01*
G01X12498Y7383D01*
G01X12494Y7385D01*
G01X12491Y7387D01*
G01X12487Y7389D01*
G01X12483Y7391D01*
G01X12480Y7393D01*
G01X12476Y7394D01*
G01X12472Y7395D01*
G01X12468Y7396D01*
G01X12464Y7397D01*
G01X12460Y7398D01*
G01X12456Y7399D01*
G01X12451Y7399D01*
G01X12447Y7399D01*
G01X12443Y7400D01*
G01X10400Y7400D01*
G01X10395Y7399D01*
G01X10391Y7399D01*
G01X10387Y7399D01*
G01X10383Y7398D01*
G01X10379Y7397D01*
G01X10375Y7396D01*
G01X10371Y7395D01*
G01X10367Y7394D01*
G01X10363Y7393D01*
G01X10359Y7391D01*
G01X10356Y7389D01*
G01X10352Y7387D01*
G01X10348Y7385D01*
G01X10345Y7383D01*
G01X10341Y7381D01*
G01X10338Y7378D01*
G01X10335Y7376D01*
G01X10332Y7373D01*
G01X10329Y7370D01*
G01X10326Y7367D01*
G01X10323Y7364D01*
G01X10321Y7361D01*
G01X10318Y7358D01*
G01X10316Y7354D01*
G01X10314Y7351D01*
G01X10312Y7347D01*
G01X10310Y7343D01*
G01X10308Y7340D01*
G01X10306Y7336D01*
G01X10305Y7332D01*
G01X10304Y7328D01*
G01X10303Y7324D01*
G01X10302Y7320D01*
G01X10301Y7316D01*
G01X10300Y7312D01*
G01X10300Y7308D01*
G01X10300Y7304D01*
G01X10300Y7300D01*
G01X10300Y6536D01*
G01X10300Y6532D01*
G01X10300Y6528D01*
G01X10300Y6524D01*
G01X10301Y6519D01*
G01X10302Y6515D01*
G01X10303Y6511D01*
G01X10304Y6507D01*
G01X10305Y6503D01*
G01X10306Y6500D01*
G01X10308Y6496D01*
G01X10310Y6492D01*
G01X10312Y6488D01*
G01X10314Y6485D01*
G01X10316Y6481D01*
G01X10318Y6478D01*
G01X10321Y6474D01*
G01X10323Y6471D01*
G01X10326Y6468D01*
G01X10329Y6465D01*
G01X10332Y6462D01*
G01X10335Y6460D01*
G01X10338Y6457D01*
G01X10341Y6455D01*
G01X10345Y6452D01*
G01X10348Y6450D01*
G01X10352Y6448D01*
G01X10356Y6446D01*
G01X10359Y6444D01*
G01X10363Y6443D01*
G01X10367Y6441D01*
G01X10371Y6440D01*
G01X10375Y6439D01*
G01X10379Y6438D01*
G01X10383Y6437D01*
G01X10387Y6437D01*
G01X10391Y6436D01*
G01X10395Y6436D01*
G01X10400Y6436D01*
G01X12443Y6436D01*
G01X12447Y6436D01*
G01X12451Y6436D01*
G01X12456Y6437D01*
G01X12460Y6437D01*
G01X12464Y6438D01*
G01X12468Y6439D01*
G01X12472Y6440D01*
G01X12476Y6441D01*
G01X12480Y6443D01*
G01X12483Y6444D01*
G01X12487Y6446D01*
G01X12491Y6448D01*
G01X12494Y6450D01*
G01X12498Y6452D01*
G01X12500Y6453D01*
G01X12500Y6200D01*
G01X12500Y6195D01*
G01X12500Y6191D01*
G01X12500Y6187D01*
G01X12501Y6183D01*
G01X12502Y6179D01*
G01X12503Y6175D01*
G01X12504Y6171D01*
G01X12505Y6167D01*
G01X12506Y6163D01*
G01X12508Y6159D01*
G01X12510Y6156D01*
G01X12512Y6152D01*
G01X12514Y6148D01*
G01X12516Y6145D01*
G01X12518Y6141D01*
G01X12521Y6138D01*
G01X12523Y6135D01*
G01X12526Y6132D01*
G01X12529Y6129D01*
G01X12532Y6126D01*
G01X12535Y6123D01*
G01X12538Y6121D01*
G01X12541Y6118D01*
G01X12545Y6116D01*
G01X12548Y6114D01*
G01X12552Y6112D01*
G01X12556Y6110D01*
G01X12559Y6108D01*
G01X12563Y6106D01*
G01X12567Y6105D01*
G01X12571Y6104D01*
G01X12575Y6103D01*
G01X12579Y6102D01*
G01X12583Y6101D01*
G01X12587Y6100D01*
G01X12591Y6100D01*
G01X12595Y6100D01*
G01X12600Y6100D01*
G01X15100Y6100D01*
G01X15100Y1500D01*
G01X12700Y1500D01*
G01X12695Y1499D01*
G01X12691Y1499D01*
G01X12687Y1499D01*
G01X12683Y1498D01*
G01X12679Y1497D01*
G01X12675Y1496D01*
G01X12671Y1495D01*
G01X12667Y1494D01*
G01X12663Y1493D01*
G01X12659Y1491D01*
G01X12656Y1489D01*
G01X12652Y1487D01*
G01X12648Y1485D01*
G01X12645Y1483D01*
G01X12641Y1481D01*
G01X12638Y1478D01*
G01X12635Y1476D01*
G01X12632Y1473D01*
G01X12629Y1470D01*
G01X12626Y1467D01*
G01X12623Y1464D01*
G01X12621Y1461D01*
G01X12618Y1458D01*
G01X12616Y1454D01*
G01X12614Y1451D01*
G01X12612Y1447D01*
G01X12610Y1443D01*
G01X12608Y1440D01*
G01X12606Y1436D01*
G01X12605Y1432D01*
G01X12604Y1428D01*
G01X12603Y1424D01*
G01X12602Y1420D01*
G01X12601Y1416D01*
G01X12600Y1412D01*
G01X12600Y1408D01*
G01X12600Y1404D01*
G01X12600Y1400D01*
G01X12600Y100D01*
G01X12600Y95D01*
G01X12600Y91D01*
G01X12600Y87D01*
G01X12601Y83D01*
G01X12602Y79D01*
G01X12603Y75D01*
G01X12604Y71D01*
G01X12605Y67D01*
G01X12606Y63D01*
G01X12608Y59D01*
G01X12610Y56D01*
G01X12612Y52D01*
G01X12614Y48D01*
G01X12616Y45D01*
G01X12618Y41D01*
G01X12621Y38D01*
G01X12623Y35D01*
G01X12626Y32D01*
G01X12629Y29D01*
G01X12632Y26D01*
G01X12635Y23D01*
G01X12638Y21D01*
G01X12641Y18D01*
G01X12645Y16D01*
G01X12648Y14D01*
G01X12652Y12D01*
G01X12656Y10D01*
G01X12659Y8D01*
G01X12663Y6D01*
G01X12667Y5D01*
G01X12671Y4D01*
G01X12675Y3D01*
G01X12679Y2D01*
G01X12683Y1D01*
G01X12687Y0D01*
G01X12691Y0D01*
G01X12695Y0D01*
G01X12700Y0D01*
G37*

%LPC*%
G36*
G01X8426Y6928D02*
G01X8419Y6912D01*
G01X8687Y6912D01*
G01X8687Y7180D01*
G01X8683Y7179D01*
G01X8636Y7155D01*
G01X8592Y7127D01*
G01X8551Y7094D01*
G01X8514Y7057D01*
G01X8480Y7017D01*
G01X8451Y6974D01*
G01X8426Y6928D01*
G37*
G36*
G01X8834Y578D02*
G01X8886Y574D01*
G01X8939Y575D01*
G01X8991Y581D01*
G01X9042Y593D01*
G01X9092Y610D01*
G01X9139Y631D01*
G01X9185Y658D01*
G01X9227Y688D01*
G01X9267Y723D01*
G01X9302Y761D01*
G01X9334Y803D01*
G01X9361Y848D01*
G01X9384Y895D01*
G01X9402Y944D01*
G01X9415Y995D01*
G01X9423Y1047D01*
G01X9426Y1100D01*
G01X9423Y1152D01*
G01X9415Y1204D01*
G01X9402Y1255D01*
G01X9384Y1304D01*
G01X9361Y1351D01*
G01X9334Y1396D01*
G01X9302Y1438D01*
G01X9267Y1476D01*
G01X9227Y1511D01*
G01X9185Y1541D01*
G01X9139Y1568D01*
G01X9092Y1589D01*
G01X9042Y1606D01*
G01X8991Y1618D01*
G01X8939Y1624D01*
G01X8886Y1625D01*
G01X8834Y1621D01*
G01X8782Y1612D01*
G01X8732Y1598D01*
G01X8697Y1585D01*
G01X6841Y3441D01*
G01X6837Y3445D01*
G01X6832Y3449D01*
G01X6828Y3453D01*
G01X6823Y3457D01*
G01X6818Y3461D01*
G01X6813Y3464D01*
G01X6808Y3467D01*
G01X6803Y3471D01*
G01X6798Y3474D01*
G01X6792Y3477D01*
G01X6787Y3479D01*
G01X6782Y3482D01*
G01X6776Y3484D01*
G01X6770Y3486D01*
G01X6765Y3489D01*
G01X6759Y3490D01*
G01X6753Y3492D01*
G01X6747Y3494D01*
G01X6741Y3495D01*
G01X6736Y3496D01*
G01X6730Y3497D01*
G01X6724Y3498D01*
G01X6718Y3499D01*
G01X6712Y3499D01*
G01X6706Y3499D01*
G01X6700Y3500D01*
G01X4547Y3500D01*
G01X4531Y3525D01*
G01X4507Y3557D01*
G01X4479Y3587D01*
G01X4450Y3613D01*
G01X4417Y3636D01*
G01X4382Y3656D01*
G01X4346Y3673D01*
G01X4308Y3686D01*
G01X4269Y3694D01*
G01X4229Y3699D01*
G01X4190Y3700D01*
G01X4150Y3697D01*
G01X4110Y3690D01*
G01X4072Y3680D01*
G01X4035Y3665D01*
G01X3999Y3647D01*
G01X3965Y3625D01*
G01X3934Y3600D01*
G01X3906Y3572D01*
G01X3880Y3542D01*
G01X3857Y3509D01*
G01X3838Y3473D01*
G01X3823Y3437D01*
G01X3811Y3398D01*
G01X3803Y3359D01*
G01X3799Y3319D01*
G01X3799Y3280D01*
G01X3803Y3240D01*
G01X3811Y3201D01*
G01X3823Y3162D01*
G01X3838Y3126D01*
G01X3857Y3090D01*
G01X3880Y3057D01*
G01X3906Y3027D01*
G01X3934Y2999D01*
G01X3965Y2974D01*
G01X3999Y2952D01*
G01X4035Y2934D01*
G01X4072Y2919D01*
G01X4110Y2909D01*
G01X4150Y2902D01*
G01X4190Y2899D01*
G01X4229Y2900D01*
G01X4269Y2905D01*
G01X4308Y2913D01*
G01X4346Y2926D01*
G01X4382Y2943D01*
G01X4417Y2963D01*
G01X4450Y2986D01*
G01X4479Y3012D01*
G01X4507Y3042D01*
G01X4531Y3074D01*
G01X4547Y3100D01*
G01X6617Y3100D01*
G01X8415Y1302D01*
G01X8405Y1279D01*
G01X8390Y1229D01*
G01X8379Y1178D01*
G01X8374Y1126D01*
G01X8374Y1073D01*
G01X8379Y1021D01*
G01X8390Y970D01*
G01X8405Y920D01*
G01X8426Y871D01*
G01X8451Y825D01*
G01X8480Y782D01*
G01X8514Y742D01*
G01X8551Y705D01*
G01X8592Y672D01*
G01X8636Y644D01*
G01X8683Y620D01*
G01X8732Y601D01*
G01X8782Y587D01*
G01X8834Y578D01*
G37*
G36*
G01X6283Y620D02*
G01X6287Y619D01*
G01X6287Y887D01*
G01X6019Y887D01*
G01X6026Y871D01*
G01X6051Y825D01*
G01X6080Y782D01*
G01X6114Y742D01*
G01X6151Y705D01*
G01X6192Y672D01*
G01X6236Y644D01*
G01X6283Y620D01*
G37*
G36*
G01X6712Y887D02*
G01X6712Y619D01*
G01X6739Y631D01*
G01X6785Y658D01*
G01X6827Y688D01*
G01X6867Y723D01*
G01X6902Y761D01*
G01X6934Y803D01*
G01X6961Y848D01*
G01X6980Y887D01*
G01X6712Y887D01*
G37*
G36*
G01X4150Y902D02*
G01X4190Y899D01*
G01X4229Y900D01*
G01X4269Y905D01*
G01X4308Y913D01*
G01X4346Y926D01*
G01X4382Y943D01*
G01X4417Y963D01*
G01X4450Y986D01*
G01X4479Y1012D01*
G01X4507Y1042D01*
G01X4531Y1074D01*
G01X4547Y1100D01*
G01X4700Y1100D01*
G01X4706Y1100D01*
G01X4712Y1100D01*
G01X4718Y1100D01*
G01X4724Y1101D01*
G01X4730Y1102D01*
G01X4736Y1103D01*
G01X4741Y1104D01*
G01X4747Y1105D01*
G01X4753Y1107D01*
G01X4759Y1109D01*
G01X4765Y1110D01*
G01X4770Y1113D01*
G01X4776Y1115D01*
G01X4782Y1117D01*
G01X4787Y1120D01*
G01X4792Y1122D01*
G01X4798Y1125D01*
G01X4803Y1128D01*
G01X4808Y1132D01*
G01X4813Y1135D01*
G01X4818Y1138D01*
G01X4823Y1142D01*
G01X4828Y1146D01*
G01X4832Y1150D01*
G01X4837Y1154D01*
G01X4841Y1158D01*
G01X5582Y1900D01*
G01X6701Y1900D01*
G01X6708Y1896D01*
G01X6728Y1888D01*
G01X6750Y1882D01*
G01X6772Y1878D01*
G01X6794Y1877D01*
G01X6816Y1877D01*
G01X6838Y1880D01*
G01X6860Y1885D01*
G01X6881Y1892D01*
G01X6901Y1901D01*
G01X6920Y1912D01*
G01X6939Y1925D01*
G01X6955Y1940D01*
G01X6970Y1956D01*
G01X6984Y1974D01*
G01X6995Y1993D01*
G01X7005Y2013D01*
G01X7013Y2034D01*
G01X7018Y2055D01*
G01X7021Y2077D01*
G01X7022Y2100D01*
G01X7021Y2122D01*
G01X7018Y2144D01*
G01X7013Y2165D01*
G01X7005Y2186D01*
G01X6995Y2206D01*
G01X6984Y2225D01*
G01X6970Y2243D01*
G01X6955Y2259D01*
G01X6939Y2274D01*
G01X6920Y2287D01*
G01X6901Y2298D01*
G01X6881Y2307D01*
G01X6860Y2314D01*
G01X6838Y2319D01*
G01X6816Y2322D01*
G01X6794Y2322D01*
G01X6772Y2321D01*
G01X6750Y2317D01*
G01X6728Y2311D01*
G01X6708Y2303D01*
G01X6701Y2300D01*
G01X5500Y2300D01*
G01X5493Y2299D01*
G01X5487Y2299D01*
G01X5481Y2299D01*
G01X5475Y2298D01*
G01X5469Y2297D01*
G01X5463Y2296D01*
G01X5458Y2295D01*
G01X5452Y2294D01*
G01X5446Y2292D01*
G01X5440Y2290D01*
G01X5434Y2289D01*
G01X5429Y2286D01*
G01X5423Y2284D01*
G01X5417Y2282D01*
G01X5412Y2279D01*
G01X5407Y2277D01*
G01X5401Y2274D01*
G01X5396Y2271D01*
G01X5391Y2267D01*
G01X5386Y2264D01*
G01X5381Y2261D01*
G01X5376Y2257D01*
G01X5371Y2253D01*
G01X5367Y2249D01*
G01X5362Y2245D01*
G01X5358Y2241D01*
G01X4617Y1500D01*
G01X4547Y1500D01*
G01X4531Y1525D01*
G01X4507Y1557D01*
G01X4479Y1587D01*
G01X4450Y1613D01*
G01X4417Y1636D01*
G01X4382Y1656D01*
G01X4346Y1673D01*
G01X4308Y1686D01*
G01X4269Y1694D01*
G01X4229Y1699D01*
G01X4190Y1700D01*
G01X4150Y1697D01*
G01X4110Y1690D01*
G01X4072Y1680D01*
G01X4035Y1665D01*
G01X3999Y1647D01*
G01X3965Y1625D01*
G01X3934Y1600D01*
G01X3906Y1572D01*
G01X3880Y1542D01*
G01X3857Y1509D01*
G01X3838Y1473D01*
G01X3823Y1437D01*
G01X3811Y1398D01*
G01X3803Y1359D01*
G01X3799Y1319D01*
G01X3799Y1280D01*
G01X3803Y1240D01*
G01X3811Y1201D01*
G01X3823Y1162D01*
G01X3838Y1126D01*
G01X3857Y1090D01*
G01X3880Y1057D01*
G01X3906Y1027D01*
G01X3934Y999D01*
G01X3965Y974D01*
G01X3999Y952D01*
G01X4035Y934D01*
G01X4072Y919D01*
G01X4110Y909D01*
G01X4150Y902D01*
G37*
G36*
G01X868Y1296D02*
G01X901Y1294D01*
G01X935Y1294D01*
G01X968Y1299D01*
G01X1001Y1306D01*
G01X1032Y1317D01*
G01X1063Y1330D01*
G01X1092Y1347D01*
G01X1119Y1367D01*
G01X1144Y1389D01*
G01X1167Y1414D01*
G01X1187Y1440D01*
G01X1205Y1469D01*
G01X1219Y1499D01*
G01X1231Y1530D01*
G01X1239Y1563D01*
G01X1244Y1596D01*
G01X1246Y1630D01*
G01X1244Y1663D01*
G01X1239Y1696D01*
G01X1231Y1729D01*
G01X1219Y1760D01*
G01X1205Y1790D01*
G01X1187Y1819D01*
G01X1167Y1845D01*
G01X1144Y1870D01*
G01X1119Y1892D01*
G01X1092Y1912D01*
G01X1063Y1928D01*
G01X1032Y1942D01*
G01X1001Y1953D01*
G01X968Y1960D01*
G01X935Y1965D01*
G01X901Y1965D01*
G01X868Y1963D01*
G01X835Y1957D01*
G01X802Y1948D01*
G01X771Y1936D01*
G01X742Y1920D01*
G01X713Y1902D01*
G01X687Y1881D01*
G01X663Y1858D01*
G01X642Y1832D01*
G01X623Y1805D01*
G01X607Y1775D01*
G01X594Y1744D01*
G01X584Y1712D01*
G01X577Y1680D01*
G01X574Y1646D01*
G01X574Y1613D01*
G01X577Y1579D01*
G01X584Y1547D01*
G01X594Y1515D01*
G01X607Y1484D01*
G01X623Y1454D01*
G01X642Y1427D01*
G01X663Y1401D01*
G01X687Y1378D01*
G01X713Y1357D01*
G01X742Y1339D01*
G01X771Y1323D01*
G01X802Y1311D01*
G01X835Y1302D01*
G01X868Y1296D01*
G37*
G36*
G01X1868Y1296D02*
G01X1901Y1294D01*
G01X1935Y1294D01*
G01X1968Y1299D01*
G01X2001Y1306D01*
G01X2032Y1317D01*
G01X2063Y1330D01*
G01X2092Y1347D01*
G01X2119Y1367D01*
G01X2144Y1389D01*
G01X2167Y1414D01*
G01X2187Y1440D01*
G01X2205Y1469D01*
G01X2219Y1499D01*
G01X2231Y1530D01*
G01X2239Y1563D01*
G01X2244Y1596D01*
G01X2246Y1630D01*
G01X2244Y1663D01*
G01X2239Y1696D01*
G01X2231Y1729D01*
G01X2219Y1760D01*
G01X2205Y1790D01*
G01X2187Y1819D01*
G01X2167Y1845D01*
G01X2144Y1870D01*
G01X2119Y1892D01*
G01X2092Y1912D01*
G01X2063Y1928D01*
G01X2032Y1942D01*
G01X2001Y1953D01*
G01X1968Y1960D01*
G01X1935Y1965D01*
G01X1901Y1965D01*
G01X1868Y1963D01*
G01X1835Y1957D01*
G01X1802Y1948D01*
G01X1771Y1936D01*
G01X1742Y1920D01*
G01X1713Y1902D01*
G01X1687Y1881D01*
G01X1663Y1858D01*
G01X1642Y1832D01*
G01X1623Y1805D01*
G01X1607Y1775D01*
G01X1594Y1744D01*
G01X1584Y1712D01*
G01X1577Y1680D01*
G01X1574Y1646D01*
G01X1574Y1613D01*
G01X1577Y1579D01*
G01X1584Y1547D01*
G01X1594Y1515D01*
G01X1607Y1484D01*
G01X1623Y1454D01*
G01X1642Y1427D01*
G01X1663Y1401D01*
G01X1687Y1378D01*
G01X1713Y1357D01*
G01X1742Y1339D01*
G01X1771Y1323D01*
G01X1802Y1311D01*
G01X1835Y1302D01*
G01X1868Y1296D01*
G37*
G36*
G01X6712Y1580D02*
G01X6712Y1312D01*
G01X6980Y1312D01*
G01X6961Y1351D01*
G01X6934Y1396D01*
G01X6902Y1438D01*
G01X6867Y1476D01*
G01X6827Y1511D01*
G01X6785Y1541D01*
G01X6739Y1568D01*
G01X6712Y1580D01*
G37*
G36*
G01X6026Y1328D02*
G01X6019Y1312D01*
G01X6287Y1312D01*
G01X6287Y1580D01*
G01X6283Y1579D01*
G01X6236Y1555D01*
G01X6192Y1527D01*
G01X6151Y1494D01*
G01X6114Y1457D01*
G01X6080Y1417D01*
G01X6051Y1374D01*
G01X6026Y1328D01*
G37*
G36*
G01X11062Y1804D02*
G01X11092Y1802D01*
G01X11122Y1802D01*
G01X11151Y1806D01*
G01X11180Y1813D01*
G01X11208Y1822D01*
G01X11235Y1834D01*
G01X11261Y1849D01*
G01X11285Y1867D01*
G01X11307Y1886D01*
G01X11328Y1908D01*
G01X11346Y1932D01*
G01X11361Y1957D01*
G01X11374Y1984D01*
G01X11384Y2012D01*
G01X11391Y2040D01*
G01X11396Y2070D01*
G01X11397Y2100D01*
G01X11396Y2129D01*
G01X11391Y2159D01*
G01X11384Y2187D01*
G01X11374Y2215D01*
G01X11361Y2242D01*
G01X11346Y2267D01*
G01X11328Y2291D01*
G01X11307Y2313D01*
G01X11285Y2332D01*
G01X11261Y2350D01*
G01X11235Y2365D01*
G01X11208Y2377D01*
G01X11180Y2386D01*
G01X11151Y2393D01*
G01X11122Y2397D01*
G01X11092Y2397D01*
G01X11062Y2395D01*
G01X11033Y2390D01*
G01X11005Y2382D01*
G01X10977Y2371D01*
G01X10951Y2357D01*
G01X10926Y2341D01*
G01X10902Y2323D01*
G01X10881Y2302D01*
G01X10879Y2300D01*
G01X10282Y2300D01*
G01X10200Y2382D01*
G01X10200Y3001D01*
G01X10205Y3013D01*
G01X10213Y3034D01*
G01X10218Y3055D01*
G01X10221Y3077D01*
G01X10222Y3100D01*
G01X10221Y3122D01*
G01X10218Y3144D01*
G01X10213Y3165D01*
G01X10205Y3186D01*
G01X10195Y3206D01*
G01X10184Y3225D01*
G01X10170Y3243D01*
G01X10155Y3259D01*
G01X10139Y3274D01*
G01X10120Y3287D01*
G01X10101Y3298D01*
G01X10081Y3307D01*
G01X10060Y3314D01*
G01X10038Y3319D01*
G01X10016Y3322D01*
G01X9994Y3322D01*
G01X9972Y3321D01*
G01X9950Y3317D01*
G01X9928Y3311D01*
G01X9908Y3303D01*
G01X9888Y3293D01*
G01X9869Y3281D01*
G01X9852Y3267D01*
G01X9836Y3251D01*
G01X9822Y3234D01*
G01X9809Y3216D01*
G01X9799Y3196D01*
G01X9790Y3176D01*
G01X9783Y3155D01*
G01X9779Y3133D01*
G01X9777Y3111D01*
G01X9777Y3088D01*
G01X9779Y3066D01*
G01X9783Y3044D01*
G01X9790Y3023D01*
G01X9799Y3003D01*
G01X9800Y3001D01*
G01X9800Y2300D01*
G01X9800Y2293D01*
G01X9800Y2287D01*
G01X9800Y2281D01*
G01X9801Y2275D01*
G01X9802Y2269D01*
G01X9803Y2263D01*
G01X9804Y2258D01*
G01X9805Y2252D01*
G01X9807Y2246D01*
G01X9809Y2240D01*
G01X9810Y2234D01*
G01X9813Y2229D01*
G01X9815Y2223D01*
G01X9817Y2217D01*
G01X9820Y2212D01*
G01X9822Y2207D01*
G01X9825Y2201D01*
G01X9828Y2196D01*
G01X9832Y2191D01*
G01X9835Y2186D01*
G01X9838Y2181D01*
G01X9842Y2176D01*
G01X9846Y2171D01*
G01X9850Y2167D01*
G01X9854Y2162D01*
G01X9858Y2158D01*
G01X10058Y1958D01*
G01X10062Y1954D01*
G01X10067Y1950D01*
G01X10071Y1946D01*
G01X10076Y1942D01*
G01X10081Y1938D01*
G01X10086Y1935D01*
G01X10091Y1932D01*
G01X10096Y1928D01*
G01X10101Y1925D01*
G01X10107Y1922D01*
G01X10112Y1920D01*
G01X10117Y1917D01*
G01X10123Y1915D01*
G01X10129Y1913D01*
G01X10134Y1910D01*
G01X10140Y1909D01*
G01X10146Y1907D01*
G01X10152Y1905D01*
G01X10158Y1904D01*
G01X10163Y1903D01*
G01X10169Y1902D01*
G01X10175Y1901D01*
G01X10181Y1900D01*
G01X10187Y1900D01*
G01X10193Y1900D01*
G01X10200Y1900D01*
G01X10879Y1900D01*
G01X10881Y1897D01*
G01X10902Y1876D01*
G01X10926Y1858D01*
G01X10951Y1842D01*
G01X10977Y1828D01*
G01X11005Y1817D01*
G01X11033Y1809D01*
G01X11062Y1804D01*
G37*
G36*
G01X13601Y1916D02*
G01X13680Y1910D01*
G01X13759Y1912D01*
G01X13837Y1922D01*
G01X13913Y1939D01*
G01X13988Y1964D01*
G01X14060Y1997D01*
G01X14128Y2036D01*
G01X14192Y2082D01*
G01X14251Y2134D01*
G01X14305Y2192D01*
G01X14352Y2255D01*
G01X14393Y2322D01*
G01X14427Y2393D01*
G01X14454Y2467D01*
G01X14474Y2543D01*
G01X14486Y2621D01*
G01X14489Y2700D01*
G01X14486Y2778D01*
G01X14474Y2856D01*
G01X14454Y2932D01*
G01X14427Y3006D01*
G01X14393Y3077D01*
G01X14352Y3144D01*
G01X14305Y3207D01*
G01X14251Y3265D01*
G01X14192Y3317D01*
G01X14128Y3363D01*
G01X14060Y3402D01*
G01X13988Y3435D01*
G01X13913Y3460D01*
G01X13837Y3477D01*
G01X13759Y3487D01*
G01X13680Y3489D01*
G01X13601Y3483D01*
G01X13524Y3470D01*
G01X13448Y3448D01*
G01X13375Y3420D01*
G01X13305Y3384D01*
G01X13238Y3341D01*
G01X13177Y3292D01*
G01X13120Y3237D01*
G01X13070Y3176D01*
G01X13025Y3111D01*
G01X12988Y3042D01*
G01X12957Y2970D01*
G01X12934Y2894D01*
G01X12918Y2817D01*
G01X12911Y2739D01*
G01X12911Y2660D01*
G01X12918Y2582D01*
G01X12934Y2505D01*
G01X12957Y2429D01*
G01X12988Y2357D01*
G01X13025Y2288D01*
G01X13070Y2223D01*
G01X13120Y2162D01*
G01X13177Y2107D01*
G01X13238Y2058D01*
G01X13305Y2015D01*
G01X13375Y1979D01*
G01X13448Y1951D01*
G01X13524Y1929D01*
G01X13601Y1916D01*
G37*
G36*
G01X10977Y2419D02*
G01X11001Y2410D01*
G01X11001Y2592D01*
G01X10819Y2592D01*
G01X10820Y2589D01*
G01X10831Y2561D01*
G01X10845Y2535D01*
G01X10862Y2511D01*
G01X10881Y2488D01*
G01X10902Y2467D01*
G01X10926Y2449D01*
G01X10951Y2433D01*
G01X10977Y2419D01*
G37*
G36*
G01X11198Y2592D02*
G01X11198Y2410D01*
G01X11208Y2413D01*
G01X11235Y2425D01*
G01X11261Y2440D01*
G01X11285Y2458D01*
G01X11307Y2477D01*
G01X11328Y2499D01*
G01X11346Y2523D01*
G01X11361Y2548D01*
G01X11374Y2575D01*
G01X11380Y2592D01*
G01X11198Y2592D01*
G37*
G36*
G01X11198Y2971D02*
G01X11198Y2789D01*
G01X11380Y2789D01*
G01X11374Y2806D01*
G01X11361Y2833D01*
G01X11346Y2858D01*
G01X11328Y2882D01*
G01X11307Y2904D01*
G01X11285Y2923D01*
G01X11261Y2941D01*
G01X11235Y2956D01*
G01X11208Y2968D01*
G01X11198Y2971D01*
G37*
G36*
G01X10152Y172D02*
G01X10156Y172D01*
G01X12200Y172D01*
G01X12204Y172D01*
G01X12208Y173D01*
G01X12212Y173D01*
G01X12216Y174D01*
G01X12220Y174D01*
G01X12224Y175D01*
G01X12228Y176D01*
G01X12232Y178D01*
G01X12236Y179D01*
G01X12240Y181D01*
G01X12243Y182D01*
G01X12247Y184D01*
G01X12251Y186D01*
G01X12254Y189D01*
G01X12258Y191D01*
G01X12261Y193D01*
G01X12264Y196D01*
G01X12267Y199D01*
G01X12270Y202D01*
G01X12273Y205D01*
G01X12276Y208D01*
G01X12278Y211D01*
G01X12281Y214D01*
G01X12283Y218D01*
G01X12285Y221D01*
G01X12287Y225D01*
G01X12289Y228D01*
G01X12291Y232D01*
G01X12293Y236D01*
G01X12294Y240D01*
G01X12295Y244D01*
G01X12296Y248D01*
G01X12297Y252D01*
G01X12298Y256D01*
G01X12299Y260D01*
G01X12299Y264D01*
G01X12299Y268D01*
G01X12300Y272D01*
G01X12300Y1036D01*
G01X12299Y1040D01*
G01X12299Y1044D01*
G01X12299Y1048D01*
G01X12298Y1052D01*
G01X12297Y1056D01*
G01X12296Y1060D01*
G01X12295Y1064D01*
G01X12294Y1068D01*
G01X12293Y1072D01*
G01X12291Y1076D01*
G01X12289Y1080D01*
G01X12287Y1083D01*
G01X12285Y1087D01*
G01X12283Y1091D01*
G01X12281Y1094D01*
G01X12278Y1097D01*
G01X12276Y1100D01*
G01X12273Y1104D01*
G01X12270Y1107D01*
G01X12267Y1109D01*
G01X12264Y1112D01*
G01X12261Y1115D01*
G01X12258Y1117D01*
G01X12254Y1120D01*
G01X12251Y1122D01*
G01X12247Y1124D01*
G01X12243Y1126D01*
G01X12240Y1127D01*
G01X12236Y1129D01*
G01X12232Y1130D01*
G01X12228Y1132D01*
G01X12224Y1133D01*
G01X12220Y1134D01*
G01X12216Y1134D01*
G01X12212Y1135D01*
G01X12208Y1136D01*
G01X12204Y1136D01*
G01X12200Y1136D01*
G01X10156Y1136D01*
G01X10152Y1136D01*
G01X10148Y1136D01*
G01X10143Y1135D01*
G01X10139Y1134D01*
G01X10135Y1134D01*
G01X10131Y1133D01*
G01X10127Y1132D01*
G01X10123Y1130D01*
G01X10119Y1129D01*
G01X10116Y1127D01*
G01X10112Y1126D01*
G01X10108Y1124D01*
G01X10105Y1122D01*
G01X10101Y1120D01*
G01X10098Y1117D01*
G01X10094Y1115D01*
G01X10091Y1112D01*
G01X10088Y1109D01*
G01X10085Y1107D01*
G01X10082Y1104D01*
G01X10080Y1100D01*
G01X10077Y1097D01*
G01X10074Y1094D01*
G01X10072Y1091D01*
G01X10070Y1087D01*
G01X10068Y1083D01*
G01X10066Y1080D01*
G01X10064Y1076D01*
G01X10063Y1072D01*
G01X10061Y1068D01*
G01X10060Y1064D01*
G01X10059Y1060D01*
G01X10058Y1056D01*
G01X10057Y1052D01*
G01X10057Y1048D01*
G01X10056Y1044D01*
G01X10056Y1040D01*
G01X10056Y1036D01*
G01X10056Y272D01*
G01X10056Y268D01*
G01X10056Y264D01*
G01X10057Y260D01*
G01X10057Y256D01*
G01X10058Y252D01*
G01X10059Y248D01*
G01X10060Y244D01*
G01X10061Y240D01*
G01X10063Y236D01*
G01X10064Y232D01*
G01X10066Y228D01*
G01X10068Y225D01*
G01X10070Y221D01*
G01X10072Y218D01*
G01X10074Y214D01*
G01X10077Y211D01*
G01X10080Y208D01*
G01X10082Y205D01*
G01X10085Y202D01*
G01X10088Y199D01*
G01X10091Y196D01*
G01X10094Y193D01*
G01X10098Y191D01*
G01X10101Y189D01*
G01X10105Y186D01*
G01X10108Y184D01*
G01X10112Y182D01*
G01X10116Y181D01*
G01X10119Y179D01*
G01X10123Y178D01*
G01X10127Y176D01*
G01X10131Y175D01*
G01X10135Y174D01*
G01X10139Y174D01*
G01X10143Y173D01*
G01X10148Y173D01*
G01X10152Y172D01*
G37*
G36*
G01X1848Y3536D02*
G01X1881Y3534D01*
G01X1915Y3534D01*
G01X1948Y3539D01*
G01X1980Y3546D01*
G01X2012Y3557D01*
G01X2043Y3571D01*
G01X2072Y3587D01*
G01X2099Y3607D01*
G01X2124Y3629D01*
G01X2147Y3654D01*
G01X2167Y3680D01*
G01X2185Y3709D01*
G01X2199Y3739D01*
G01X2211Y3770D01*
G01X2219Y3803D01*
G01X2224Y3836D01*
G01X2226Y3869D01*
G01X2224Y3903D01*
G01X2219Y3936D01*
G01X2211Y3969D01*
G01X2199Y4000D01*
G01X2185Y4030D01*
G01X2167Y4059D01*
G01X2147Y4085D01*
G01X2124Y4110D01*
G01X2099Y4132D01*
G01X2072Y4152D01*
G01X2043Y4169D01*
G01X2012Y4182D01*
G01X1980Y4193D01*
G01X1948Y4200D01*
G01X1915Y4205D01*
G01X1881Y4205D01*
G01X1848Y4203D01*
G01X1815Y4197D01*
G01X1782Y4188D01*
G01X1751Y4176D01*
G01X1721Y4160D01*
G01X1693Y4142D01*
G01X1667Y4121D01*
G01X1643Y4098D01*
G01X1622Y4072D01*
G01X1603Y4045D01*
G01X1587Y4015D01*
G01X1574Y3984D01*
G01X1564Y3952D01*
G01X1557Y3920D01*
G01X1554Y3886D01*
G01X1554Y3853D01*
G01X1557Y3819D01*
G01X1564Y3787D01*
G01X1574Y3755D01*
G01X1587Y3724D01*
G01X1603Y3694D01*
G01X1622Y3667D01*
G01X1643Y3641D01*
G01X1667Y3618D01*
G01X1693Y3597D01*
G01X1721Y3579D01*
G01X1751Y3563D01*
G01X1782Y3551D01*
G01X1815Y3542D01*
G01X1848Y3536D01*
G37*
G36*
G01X848Y3536D02*
G01X881Y3534D01*
G01X915Y3534D01*
G01X948Y3539D01*
G01X980Y3546D01*
G01X1012Y3557D01*
G01X1043Y3571D01*
G01X1072Y3587D01*
G01X1099Y3607D01*
G01X1124Y3629D01*
G01X1147Y3654D01*
G01X1167Y3680D01*
G01X1185Y3709D01*
G01X1199Y3739D01*
G01X1211Y3770D01*
G01X1219Y3803D01*
G01X1224Y3836D01*
G01X1226Y3869D01*
G01X1224Y3903D01*
G01X1219Y3936D01*
G01X1211Y3969D01*
G01X1199Y4000D01*
G01X1185Y4030D01*
G01X1167Y4059D01*
G01X1147Y4085D01*
G01X1124Y4110D01*
G01X1099Y4132D01*
G01X1072Y4152D01*
G01X1043Y4169D01*
G01X1012Y4182D01*
G01X980Y4193D01*
G01X948Y4200D01*
G01X915Y4205D01*
G01X881Y4205D01*
G01X848Y4203D01*
G01X815Y4197D01*
G01X782Y4188D01*
G01X751Y4176D01*
G01X721Y4160D01*
G01X693Y4142D01*
G01X667Y4121D01*
G01X643Y4098D01*
G01X622Y4072D01*
G01X603Y4045D01*
G01X587Y4015D01*
G01X574Y3984D01*
G01X564Y3952D01*
G01X557Y3920D01*
G01X554Y3886D01*
G01X554Y3853D01*
G01X557Y3819D01*
G01X564Y3787D01*
G01X574Y3755D01*
G01X587Y3724D01*
G01X603Y3694D01*
G01X622Y3667D01*
G01X643Y3641D01*
G01X667Y3618D01*
G01X693Y3597D01*
G01X721Y3579D01*
G01X751Y3563D01*
G01X782Y3551D01*
G01X815Y3542D01*
G01X848Y3536D01*
G37*
G36*
G01X13601Y3816D02*
G01X13680Y3810D01*
G01X13759Y3812D01*
G01X13837Y3822D01*
G01X13913Y3839D01*
G01X13988Y3864D01*
G01X14060Y3897D01*
G01X14128Y3936D01*
G01X14192Y3982D01*
G01X14251Y4034D01*
G01X14305Y4092D01*
G01X14352Y4155D01*
G01X14393Y4222D01*
G01X14427Y4293D01*
G01X14454Y4367D01*
G01X14474Y4443D01*
G01X14486Y4521D01*
G01X14489Y4600D01*
G01X14486Y4678D01*
G01X14474Y4756D01*
G01X14454Y4832D01*
G01X14427Y4906D01*
G01X14393Y4977D01*
G01X14352Y5044D01*
G01X14305Y5107D01*
G01X14251Y5165D01*
G01X14192Y5217D01*
G01X14128Y5263D01*
G01X14060Y5302D01*
G01X13988Y5335D01*
G01X13913Y5360D01*
G01X13837Y5377D01*
G01X13759Y5387D01*
G01X13680Y5389D01*
G01X13601Y5383D01*
G01X13524Y5370D01*
G01X13448Y5348D01*
G01X13375Y5320D01*
G01X13305Y5284D01*
G01X13238Y5241D01*
G01X13177Y5192D01*
G01X13120Y5137D01*
G01X13070Y5076D01*
G01X13025Y5011D01*
G01X12988Y4942D01*
G01X12957Y4870D01*
G01X12934Y4794D01*
G01X12918Y4717D01*
G01X12911Y4639D01*
G01X12911Y4560D01*
G01X12918Y4482D01*
G01X12934Y4405D01*
G01X12957Y4329D01*
G01X12988Y4257D01*
G01X13025Y4188D01*
G01X13070Y4123D01*
G01X13120Y4062D01*
G01X13177Y4007D01*
G01X13238Y3958D01*
G01X13305Y3915D01*
G01X13375Y3879D01*
G01X13448Y3851D01*
G01X13524Y3829D01*
G01X13601Y3816D01*
G37*
G36*
G01X10977Y4028D02*
G01X11001Y4019D01*
G01X11001Y4201D01*
G01X10819Y4201D01*
G01X10820Y4198D01*
G01X10831Y4170D01*
G01X10845Y4144D01*
G01X10862Y4120D01*
G01X10881Y4097D01*
G01X10902Y4076D01*
G01X10926Y4058D01*
G01X10951Y4042D01*
G01X10977Y4028D01*
G37*
G36*
G01X11198Y4201D02*
G01X11198Y4019D01*
G01X11208Y4022D01*
G01X11235Y4034D01*
G01X11261Y4049D01*
G01X11285Y4067D01*
G01X11307Y4086D01*
G01X11328Y4108D01*
G01X11346Y4132D01*
G01X11361Y4157D01*
G01X11374Y4184D01*
G01X11380Y4201D01*
G01X11198Y4201D01*
G37*
G36*
G01X4150Y4202D02*
G01X4190Y4199D01*
G01X4229Y4200D01*
G01X4269Y4205D01*
G01X4308Y4213D01*
G01X4346Y4226D01*
G01X4382Y4243D01*
G01X4417Y4263D01*
G01X4450Y4286D01*
G01X4479Y4312D01*
G01X4507Y4342D01*
G01X4531Y4374D01*
G01X4547Y4400D01*
G01X8000Y4400D01*
G01X8006Y4400D01*
G01X8012Y4400D01*
G01X8018Y4400D01*
G01X8024Y4401D01*
G01X8030Y4402D01*
G01X8036Y4403D01*
G01X8041Y4404D01*
G01X8047Y4405D01*
G01X8053Y4407D01*
G01X8059Y4409D01*
G01X8065Y4410D01*
G01X8070Y4413D01*
G01X8076Y4415D01*
G01X8082Y4417D01*
G01X8087Y4420D01*
G01X8092Y4422D01*
G01X8098Y4425D01*
G01X8103Y4428D01*
G01X8108Y4432D01*
G01X8113Y4435D01*
G01X8118Y4438D01*
G01X8123Y4442D01*
G01X8128Y4446D01*
G01X8132Y4450D01*
G01X8137Y4454D01*
G01X8141Y4458D01*
G01X8382Y4700D01*
G01X10871Y4700D01*
G01X10881Y4688D01*
G01X10902Y4667D01*
G01X10926Y4649D01*
G01X10951Y4633D01*
G01X10977Y4619D01*
G01X11005Y4608D01*
G01X11033Y4600D01*
G01X11062Y4595D01*
G01X11092Y4593D01*
G01X11122Y4593D01*
G01X11151Y4597D01*
G01X11180Y4604D01*
G01X11208Y4613D01*
G01X11235Y4625D01*
G01X11261Y4640D01*
G01X11285Y4658D01*
G01X11307Y4677D01*
G01X11328Y4699D01*
G01X11346Y4723D01*
G01X11361Y4748D01*
G01X11374Y4775D01*
G01X11384Y4803D01*
G01X11391Y4831D01*
G01X11396Y4861D01*
G01X11397Y4890D01*
G01X11396Y4920D01*
G01X11391Y4950D01*
G01X11384Y4978D01*
G01X11374Y5006D01*
G01X11361Y5033D01*
G01X11346Y5058D01*
G01X11328Y5082D01*
G01X11307Y5104D01*
G01X11285Y5123D01*
G01X11261Y5141D01*
G01X11235Y5156D01*
G01X11208Y5168D01*
G01X11180Y5177D01*
G01X11151Y5184D01*
G01X11122Y5188D01*
G01X11092Y5188D01*
G01X11062Y5186D01*
G01X11033Y5181D01*
G01X11005Y5173D01*
G01X10977Y5162D01*
G01X10951Y5148D01*
G01X10926Y5132D01*
G01X10902Y5114D01*
G01X10888Y5100D01*
G01X8300Y5100D01*
G01X8293Y5099D01*
G01X8287Y5099D01*
G01X8281Y5099D01*
G01X8275Y5098D01*
G01X8269Y5097D01*
G01X8263Y5096D01*
G01X8258Y5095D01*
G01X8252Y5094D01*
G01X8246Y5092D01*
G01X8240Y5090D01*
G01X8234Y5089D01*
G01X8229Y5086D01*
G01X8223Y5084D01*
G01X8217Y5082D01*
G01X8212Y5079D01*
G01X8207Y5077D01*
G01X8201Y5074D01*
G01X8196Y5071D01*
G01X8191Y5067D01*
G01X8186Y5064D01*
G01X8181Y5061D01*
G01X8176Y5057D01*
G01X8171Y5053D01*
G01X8167Y5049D01*
G01X8162Y5045D01*
G01X8158Y5041D01*
G01X7917Y4800D01*
G01X4547Y4800D01*
G01X4531Y4825D01*
G01X4507Y4857D01*
G01X4479Y4887D01*
G01X4450Y4913D01*
G01X4417Y4936D01*
G01X4382Y4956D01*
G01X4346Y4973D01*
G01X4308Y4986D01*
G01X4269Y4994D01*
G01X4229Y4999D01*
G01X4190Y5000D01*
G01X4150Y4997D01*
G01X4110Y4990D01*
G01X4072Y4980D01*
G01X4035Y4965D01*
G01X3999Y4947D01*
G01X3965Y4925D01*
G01X3934Y4900D01*
G01X3906Y4872D01*
G01X3880Y4842D01*
G01X3857Y4809D01*
G01X3838Y4773D01*
G01X3823Y4737D01*
G01X3811Y4698D01*
G01X3803Y4659D01*
G01X3799Y4619D01*
G01X3799Y4580D01*
G01X3803Y4540D01*
G01X3811Y4501D01*
G01X3823Y4462D01*
G01X3838Y4426D01*
G01X3857Y4390D01*
G01X3880Y4357D01*
G01X3906Y4327D01*
G01X3934Y4299D01*
G01X3965Y4274D01*
G01X3999Y4252D01*
G01X4035Y4234D01*
G01X4072Y4219D01*
G01X4110Y4209D01*
G01X4150Y4202D01*
G37*
G36*
G01X11198Y4580D02*
G01X11198Y4398D01*
G01X11380Y4398D01*
G01X11374Y4415D01*
G01X11361Y4442D01*
G01X11346Y4467D01*
G01X11328Y4491D01*
G01X11307Y4513D01*
G01X11285Y4532D01*
G01X11261Y4550D01*
G01X11235Y4565D01*
G01X11208Y4577D01*
G01X11198Y4580D01*
G37*
G36*
G01X10820Y4401D02*
G01X10819Y4398D01*
G01X11001Y4398D01*
G01X11001Y4580D01*
G01X10977Y4571D01*
G01X10951Y4557D01*
G01X10926Y4541D01*
G01X10902Y4523D01*
G01X10881Y4502D01*
G01X10862Y4479D01*
G01X10845Y4455D01*
G01X10831Y4429D01*
G01X10820Y4401D01*
G37*
G36*
G01X1201Y5616D02*
G01X1280Y5610D01*
G01X1359Y5612D01*
G01X1437Y5622D01*
G01X1513Y5639D01*
G01X1588Y5664D01*
G01X1660Y5697D01*
G01X1728Y5736D01*
G01X1792Y5782D01*
G01X1851Y5834D01*
G01X1905Y5892D01*
G01X1952Y5955D01*
G01X1993Y6022D01*
G01X2027Y6093D01*
G01X2054Y6167D01*
G01X2074Y6243D01*
G01X2086Y6321D01*
G01X2089Y6400D01*
G01X2086Y6478D01*
G01X2074Y6556D01*
G01X2054Y6632D01*
G01X2027Y6706D01*
G01X1993Y6777D01*
G01X1952Y6844D01*
G01X1905Y6907D01*
G01X1851Y6965D01*
G01X1792Y7017D01*
G01X1728Y7063D01*
G01X1660Y7102D01*
G01X1588Y7135D01*
G01X1513Y7160D01*
G01X1437Y7177D01*
G01X1359Y7187D01*
G01X1280Y7189D01*
G01X1201Y7183D01*
G01X1124Y7170D01*
G01X1048Y7148D01*
G01X975Y7120D01*
G01X905Y7084D01*
G01X838Y7041D01*
G01X777Y6992D01*
G01X720Y6937D01*
G01X670Y6876D01*
G01X625Y6811D01*
G01X588Y6742D01*
G01X557Y6670D01*
G01X534Y6594D01*
G01X518Y6517D01*
G01X511Y6439D01*
G01X511Y6360D01*
G01X518Y6282D01*
G01X534Y6205D01*
G01X557Y6129D01*
G01X588Y6057D01*
G01X625Y5988D01*
G01X670Y5923D01*
G01X720Y5862D01*
G01X777Y5807D01*
G01X838Y5758D01*
G01X905Y5715D01*
G01X975Y5679D01*
G01X1048Y5651D01*
G01X1124Y5629D01*
G01X1201Y5616D01*
G37*
G36*
G01X6434Y6178D02*
G01X6486Y6174D01*
G01X6539Y6175D01*
G01X6591Y6181D01*
G01X6642Y6193D01*
G01X6692Y6210D01*
G01X6739Y6231D01*
G01X6785Y6258D01*
G01X6827Y6288D01*
G01X6867Y6323D01*
G01X6902Y6361D01*
G01X6934Y6403D01*
G01X6961Y6448D01*
G01X6984Y6495D01*
G01X7002Y6544D01*
G01X7015Y6595D01*
G01X7023Y6647D01*
G01X7026Y6700D01*
G01X7023Y6752D01*
G01X7015Y6804D01*
G01X7002Y6855D01*
G01X6984Y6904D01*
G01X6961Y6951D01*
G01X6934Y6996D01*
G01X6902Y7038D01*
G01X6867Y7076D01*
G01X6827Y7111D01*
G01X6785Y7141D01*
G01X6739Y7168D01*
G01X6692Y7189D01*
G01X6642Y7206D01*
G01X6591Y7218D01*
G01X6539Y7224D01*
G01X6486Y7225D01*
G01X6434Y7221D01*
G01X6382Y7212D01*
G01X6332Y7198D01*
G01X6283Y7179D01*
G01X6236Y7155D01*
G01X6192Y7127D01*
G01X6151Y7094D01*
G01X6114Y7057D01*
G01X6080Y7017D01*
G01X6051Y6974D01*
G01X6026Y6928D01*
G01X6005Y6879D01*
G01X5990Y6829D01*
G01X5979Y6778D01*
G01X5974Y6726D01*
G01X5974Y6673D01*
G01X5979Y6621D01*
G01X5990Y6570D01*
G01X6005Y6520D01*
G01X6026Y6471D01*
G01X6051Y6425D01*
G01X6080Y6382D01*
G01X6114Y6342D01*
G01X6151Y6305D01*
G01X6192Y6272D01*
G01X6236Y6244D01*
G01X6283Y6220D01*
G01X6332Y6201D01*
G01X6382Y6187D01*
G01X6434Y6178D01*
G37*
G36*
G01X4150Y6202D02*
G01X4190Y6199D01*
G01X4229Y6200D01*
G01X4269Y6205D01*
G01X4308Y6213D01*
G01X4346Y6226D01*
G01X4382Y6243D01*
G01X4417Y6263D01*
G01X4450Y6286D01*
G01X4479Y6312D01*
G01X4507Y6342D01*
G01X4531Y6374D01*
G01X4552Y6408D01*
G01X4569Y6444D01*
G01X4583Y6481D01*
G01X4593Y6520D01*
G01X4599Y6560D01*
G01X4601Y6600D01*
G01X4599Y6639D01*
G01X4593Y6679D01*
G01X4583Y6718D01*
G01X4569Y6755D01*
G01X4552Y6791D01*
G01X4531Y6825D01*
G01X4507Y6857D01*
G01X4479Y6887D01*
G01X4450Y6913D01*
G01X4417Y6936D01*
G01X4382Y6956D01*
G01X4346Y6973D01*
G01X4308Y6986D01*
G01X4269Y6994D01*
G01X4229Y6999D01*
G01X4190Y7000D01*
G01X4150Y6997D01*
G01X4110Y6990D01*
G01X4072Y6980D01*
G01X4035Y6965D01*
G01X3999Y6947D01*
G01X3965Y6925D01*
G01X3934Y6900D01*
G01X3906Y6872D01*
G01X3880Y6842D01*
G01X3857Y6809D01*
G01X3838Y6773D01*
G01X3823Y6737D01*
G01X3811Y6698D01*
G01X3803Y6659D01*
G01X3799Y6619D01*
G01X3799Y6580D01*
G01X3803Y6540D01*
G01X3811Y6501D01*
G01X3823Y6462D01*
G01X3838Y6426D01*
G01X3857Y6390D01*
G01X3880Y6357D01*
G01X3906Y6327D01*
G01X3934Y6299D01*
G01X3965Y6274D01*
G01X3999Y6252D01*
G01X4035Y6234D01*
G01X4072Y6219D01*
G01X4110Y6209D01*
G01X4150Y6202D01*
G37*
G36*
G01X8683Y6220D02*
G01X8687Y6219D01*
G01X8687Y6487D01*
G01X8419Y6487D01*
G01X8426Y6471D01*
G01X8451Y6425D01*
G01X8480Y6382D01*
G01X8514Y6342D01*
G01X8551Y6305D01*
G01X8592Y6272D01*
G01X8636Y6244D01*
G01X8683Y6220D01*
G37*
G36*
G01X9112Y6487D02*
G01X9112Y6219D01*
G01X9139Y6231D01*
G01X9185Y6258D01*
G01X9227Y6288D01*
G01X9267Y6323D01*
G01X9302Y6361D01*
G01X9334Y6403D01*
G01X9361Y6448D01*
G01X9380Y6487D01*
G01X9112Y6487D01*
G37*
G36*
G01X9112Y7180D02*
G01X9112Y6912D01*
G01X9380Y6912D01*
G01X9361Y6951D01*
G01X9334Y6996D01*
G01X9302Y7038D01*
G01X9267Y7076D01*
G01X9227Y7111D01*
G01X9185Y7141D01*
G01X9139Y7168D01*
G01X9112Y7180D01*
G37*
G36*
G01X10820Y2792D02*
G01X10819Y2789D01*
G01X11001Y2789D01*
G01X11001Y2971D01*
G01X10977Y2962D01*
G01X10951Y2948D01*
G01X10926Y2932D01*
G01X10902Y2914D01*
G01X10881Y2893D01*
G01X10862Y2870D01*
G01X10845Y2846D01*
G01X10831Y2820D01*
G01X10820Y2792D01*
G37*

%LPD*%
G54D11*
G01X4200Y4600D02*
G01X8000Y4600D01*
G01X8300Y4900D01*
G01X11090Y4900D01*
G01X11100Y4890D01*
G01X4200Y3300D02*
G01X6700Y3300D01*
G01X8900Y1100D01*
G01X4200Y1300D02*
G01X4700Y1300D01*
G01X5500Y2100D01*
G01X6800Y2100D01*
G01X10000Y3100D02*
G01X10000Y2300D01*
G01X10200Y2100D01*
G01X11100Y2100D01*
G01X12100Y3200D02*
G01X12100Y1400D01*
G01X12600Y900D01*
G01X12900Y900D01*
G01X12100Y3200D02*
G01X12100Y5700D01*
G01X12500Y6100D01*
G01X12700Y6300D01*
G54D12*
G01X11898Y7118D02*
G01X11934Y7190D01*
G01X12007Y7263D01*
G01X12080Y7300D01*
G01X12225Y7300D01*
G01X12298Y7263D01*
G01X12370Y7190D01*
G01X12407Y7118D01*
G01X12443Y7009D01*
G01X12443Y6827D01*
G01X12407Y6718D01*
G01X12370Y6645D01*
G01X12298Y6572D01*
G01X12225Y6536D01*
G01X12080Y6536D01*
G01X12007Y6572D01*
G01X11934Y6645D01*
G01X11898Y6718D01*
G01X11898Y6827D01*
G01X12080Y6827D02*
G01X11898Y6827D01*
G01X11658Y7300D02*
G01X11658Y6536D01*
G01X11658Y7300D02*
G01X11149Y6536D01*
G01X11149Y7300D02*
G01X11149Y6536D01*
G01X10909Y7300D02*
G01X10909Y6536D01*
G01X10909Y7300D02*
G01X10654Y7300D01*
G01X10545Y7263D01*
G01X10472Y7190D01*
G01X10436Y7118D01*
G01X10400Y7009D01*
G01X10400Y6827D01*
G01X10436Y6718D01*
G01X10472Y6645D01*
G01X10545Y6572D01*
G01X10654Y6536D01*
G01X10909Y6536D01*
G01X11654Y854D02*
G01X11690Y927D01*
G01X11763Y1000D01*
G01X11836Y1036D01*
G01X11981Y1036D01*
G01X12054Y1000D01*
G01X12127Y927D01*
G01X12163Y854D01*
G01X12200Y745D01*
G01X12200Y563D01*
G01X12163Y454D01*
G01X12127Y381D01*
G01X12054Y309D01*
G01X11981Y272D01*
G01X11836Y272D01*
G01X11763Y309D01*
G01X11690Y381D01*
G01X11654Y454D01*
G01X11654Y563D01*
G01X11836Y563D02*
G01X11654Y563D01*
G01X11414Y1036D02*
G01X11414Y272D01*
G01X11414Y1036D02*
G01X10905Y272D01*
G01X10905Y1036D02*
G01X10905Y272D01*
G01X10665Y1036D02*
G01X10665Y272D01*
G01X10665Y1036D02*
G01X10410Y1036D01*
G01X10301Y1000D01*
G01X10229Y927D01*
G01X10192Y854D01*
G01X10156Y745D01*
G01X10156Y563D01*
G01X10192Y454D01*
G01X10229Y381D01*
G01X10301Y309D01*
G01X10410Y272D01*
G01X10665Y272D01*
G36*
G01X12700Y1400D02*
G01X15100Y1400D01*
G01X15100Y100D01*
G01X12700Y100D01*
G01X12700Y1400D01*
G37*
G36*
G01X12600Y7700D02*
G01X15100Y7700D01*
G01X15100Y6200D01*
G01X12600Y6200D01*
G01X12600Y7700D01*
G37*
G54D14*
G01X890Y3869D03*
G01X1890Y3869D03*
G01X1909Y1630D03*
G01X909Y1630D03*
G54D15*
G01X11100Y4300D03*
G01X11100Y4890D03*
G01X11100Y2100D03*
G01X11100Y2690D03*
G54D16*
G01X4200Y6600D03*
G01X4200Y4600D03*
G01X4200Y1300D03*
G01X4200Y3300D03*
G54D17*
G01X6500Y1100D03*
G01X6500Y6700D03*
G01X8900Y1100D03*
G01X8900Y6700D03*
G54D18*
G01X13700Y4600D03*
G01X13700Y2700D03*
G01X1300Y6400D03*
G54D13*
G01X6800Y2100D03*
G01X10000Y3100D03*
G01X12100Y3200D03*
G01X13700Y500D03*
G01X13700Y7200D03*
M00*
M02*
